<?xml version="1.0" standalone="no"?>
<!DOCTYPE svg PUBLIC "-//W3C//DTD SVG 20010904//EN"
 "http://www.w3.org/TR/2001/REC-SVG-20010904/DTD/svg10.dtd">
<svg version="1.0" xmlns="http://www.w3.org/2000/svg"
 width="768.000000pt" height="768.000000pt" viewBox="0 0 768.000000 768.000000"
 preserveAspectRatio="xMidYMid meet">
<metadata>
Created by potrace 1.16, written by Peter Selinger 2001-2019
</metadata>
<g transform="translate(0.000000,768.000000) scale(0.100000,-0.100000)"
fill="#000000" stroke="none">
<path d="M3515 7230 c-251 -29 -372 -55 -600 -132 -144 -48 -154 -52 -325
-136 -249 -122 -438 -250 -648 -441 -299 -273 -505 -544 -671 -886 -93 -191
-135 -305 -186 -500 -54 -207 -70 -313 -90 -585 -7 -87 18 -418 34 -475 5 -16
12 -48 16 -70 30 -189 163 -525 294 -745 150 -253 464 -596 694 -759 113 -79
338 -203 457 -251 126 -51 123 -49 106 -73 -9 -12 -24 -37 -33 -55 -16 -31
-16 -34 5 -77 14 -29 35 -52 61 -67 22 -13 49 -40 61 -60 11 -21 35 -47 53
-60 17 -12 55 -46 84 -75 29 -29 56 -53 60 -53 4 0 14 -4 21 -9 11 -7 9 -17
-9 -52 -18 -35 -22 -58 -21 -111 1 -37 3 -71 4 -75 4 -19 -48 -163 -78 -212
-74 -123 -261 -311 -369 -372 -86 -49 -107 -77 -112 -156 -7 -94 10 -133 79
-176 29 -19 64 -38 78 -42 14 -4 30 -11 35 -15 14 -9 90 -36 155 -53 311 -85
754 -137 1153 -137 176 0 623 23 673 35 11 2 68 12 125 20 57 9 136 22 174 30
39 8 95 19 125 25 133 27 316 104 350 147 24 31 26 89 5 160 -18 61 -57 99
-170 165 -140 82 -430 328 -441 374 -4 15 1 41 11 65 l18 40 -36 52 -36 52 19
33 c24 40 25 73 4 113 -26 51 -16 69 61 109 227 119 276 147 332 196 78 69
113 127 113 190 0 28 -6 54 -15 64 -14 15 -13 18 7 28 13 6 94 45 180 86 289
138 488 286 690 515 342 387 529 783 615 1301 27 164 24 603 -5 760 -35 184
-41 212 -56 265 -8 28 -22 77 -31 110 -9 33 -20 69 -25 80 -5 11 -12 31 -16
45 -18 68 -136 310 -209 431 -180 297 -373 525 -633 750 -273 236 -509 372
-877 507 -347 126 -548 163 -930 167 -143 2 -291 0 -330 -5z m50 -70 c-3 -5
-19 -10 -35 -10 -30 0 -218 -34 -285 -51 -230 -59 -433 -135 -743 -276 -53
-24 -46 -10 11 21 247 136 391 194 657 266 48 13 147 31 255 45 119 16 148 17
140 5z m95 -154 c0 -10 -21 -17 -67 -25 -113 -17 -213 -23 -213 -13 0 14 26
23 115 37 112 18 165 18 165 1z m1075 -204 c4 -4 25 -14 48 -24 l42 -16 -42
-7 c-50 -9 -64 -23 -80 -79 -9 -35 -11 -37 -12 -13 -2 44 -26 91 -54 106 -33
17 -35 31 -5 31 26 0 58 27 58 50 0 33 14 30 26 -6 7 -19 15 -39 19 -42z
m-272 41 c18 -11 4 -23 -27 -23 -44 0 -89 17 -81 30 6 10 88 5 108 -7z m-1724
-47 c-2 -2 -80 -48 -174 -101 -93 -53 -173 -99 -177 -102 -5 -2 -8 0 -8 5 0 5
24 25 54 46 83 57 338 184 305 152z m880 -206 c6 -46 17 -91 25 -98 7 -8 47
-16 92 -19 70 -6 75 -7 44 -15 -77 -19 -139 -40 -148 -51 -5 -7 -15 -47 -22
-89 -7 -43 -16 -78 -20 -78 -4 0 -14 39 -21 88 l-14 87 -60 19 c-33 11 -67 21
-75 24 -8 3 12 9 45 13 33 3 68 10 77 14 23 9 38 57 45 149 7 92 15 81 32 -44z
m295 87 c21 -15 15 -51 -10 -61 -38 -15 -70 34 -42 62 16 16 30 15 52 -1z
m260 -139 c-16 -17 -18 -17 -36 -2 -23 21 -23 33 0 50 15 12 20 10 35 -8 16
-20 16 -22 1 -40z m1274 -14 c173 -113 354 -275 475 -425 68 -85 38 -64 -95
67 -127 125 -314 286 -426 367 -49 37 -60 47 -46 47 3 0 45 -25 92 -56z m-358
1 c7 -14 11 -28 8 -31 -12 -11 -48 17 -48 36 0 28 24 25 40 -5z m-2192 -115
c18 0 15 -56 -5 -75 -13 -13 -29 -16 -70 -13 -29 3 -56 7 -59 11 -8 8 -8 56 0
64 9 10 79 22 101 17 11 -2 26 -4 33 -4z m2484 -202 c10 -36 14 -38 52 -39 23
-1 52 -4 66 -8 20 -6 13 -9 -32 -13 -32 -4 -62 -9 -66 -12 -5 -3 -15 -33 -23
-66 -7 -33 -16 -60 -20 -60 -3 0 -9 22 -13 48 -9 70 -28 92 -78 92 -51 0 -45
8 13 18 l44 7 11 75 c15 94 14 94 25 40 5 -25 15 -62 21 -82z m-1286 38 c15
-12 17 -18 8 -33 -14 -23 -43 -23 -57 -1 -8 12 -7 21 2 32 16 20 22 20 47 2z
m434 1 c0 -20 31 -44 60 -49 25 -4 24 -5 -5 -13 -40 -10 -55 -23 -55 -46 0
-11 -4 -19 -10 -19 -5 0 -10 8 -10 18 0 25 -19 42 -47 42 -13 0 -23 5 -23 10
0 6 12 10 26 10 19 0 28 7 37 30 12 31 27 40 27 17z m-2320 -91 c0 -8 -4 -17
-8 -20 -5 -3 -17 -35 -27 -71 -13 -51 -23 -69 -41 -75 -28 -11 -111 -16 -120
-7 -10 9 30 59 101 125 65 61 95 76 95 48z m1002 -175 l-34 -36 -35 33 -35 32
39 38 38 38 31 -35 30 -34 -34 -36z m501 36 c7 -21 5 -34 -9 -55 l-18 -27 -9
32 c-11 37 -2 86 15 81 7 -3 16 -16 21 -31z m-1150 -96 l20 24 -6 -33 c-6 -27
-2 -38 18 -58 32 -31 31 -36 -1 -24 -35 14 -33 15 -40 -31 -7 -44 -21 -41 -26
6 -2 21 -8 29 -18 26 -30 -8 -65 -11 -50 -5 36 16 41 26 23 47 -18 20 -17 20
10 13 28 -7 29 -6 22 26 l-7 33 18 -24 17 -24 20 24z m-553 -5 c0 -8 -28 -70
-62 -138 -35 -68 -72 -146 -82 -172 l-20 -48 -65 6 c-37 4 -70 11 -74 15 -9 9
38 111 97 213 32 54 45 68 70 73 17 3 49 19 71 35 45 32 65 37 65 16z m4115
-81 c77 -127 175 -330 175 -362 0 -4 -42 62 -94 149 -95 157 -126 206 -158
242 -14 15 -15 23 -6 33 20 24 39 10 83 -62z m-1459 -5 c11 -84 7 -80 95 -80
46 0 79 -4 79 -10 0 -5 -8 -10 -18 -10 -10 0 -22 -3 -26 -7 -4 -5 -24 -13 -44
-19 -41 -11 -42 -16 -21 -96 7 -27 9 -51 5 -55 -3 -4 -26 12 -49 35 -24 23
-47 42 -51 42 -5 0 -24 -17 -43 -37 l-34 -38 6 35 c19 106 23 94 -39 120 -31
12 -53 26 -50 31 3 5 34 9 69 9 75 0 79 4 90 94 8 65 21 59 31 -14z m815 -17
c-20 -28 -23 -28 -39 -3 -10 16 -9 23 5 40 16 18 18 18 33 2 16 -16 16 -19 1
-39z m-2531 -131 c75 -23 77 -25 24 -32 -29 -4 -56 -10 -62 -14 -5 -3 -13 -31
-17 -61 -7 -62 -25 -74 -25 -17 0 52 -23 81 -71 88 -52 9 -50 20 5 28 50 8 58
15 77 71 l14 40 5 -45 c5 -43 7 -45 50 -58z m2201 -132 c-2 -3 -9 -13 -17 -24
-12 -18 -14 -18 -43 6 l-29 25 25 26 26 26 21 -27 c12 -15 19 -29 17 -32z
m-2952 21 c12 -8 12 -12 2 -25 -24 -29 -60 -13 -47 19 6 17 24 19 45 6z m2185
-74 c-11 -12 -20 -23 -21 -25 0 -2 -13 4 -28 14 l-26 17 27 28 28 29 19 -21
c18 -20 18 -21 1 -42z m-2028 -129 l9 -63 65 -10 65 -11 -55 -21 -55 -21 3
-66 c2 -36 1 -66 -2 -66 -3 0 -20 23 -37 50 -17 28 -34 50 -38 50 -4 0 -22
-11 -41 -25 -41 -30 -50 -26 -21 11 11 15 21 32 21 39 0 7 -24 29 -52 49 l-53
37 55 -7 c30 -4 57 -8 59 -10 12 -10 31 24 42 72 7 30 15 54 19 54 3 0 11 -28
16 -62z m932 -125 c13 -24 65 -42 127 -44 35 -1 32 -3 -17 -9 -32 -4 -68 -14
-81 -23 -25 -16 -47 -75 -47 -125 0 -17 -4 -34 -10 -37 -6 -4 -10 9 -10 33 0
51 -24 108 -54 127 -13 9 -43 19 -67 24 -36 7 -39 9 -14 10 102 4 128 33 142
156 l7 70 6 -80 c3 -44 11 -90 18 -102z m2497 119 c3 -8 -1 -22 -9 -30 -12
-13 -18 -13 -30 -2 -19 15 -20 32 -5 47 14 14 35 7 44 -15z m-1685 -31 c0 -9
-4 -22 -9 -30 -8 -12 -12 -12 -25 -2 -19 16 -20 33 -5 48 15 15 39 5 39 -16z
m902 -221 c6 0 25 7 43 16 19 9 42 14 52 12 15 -4 12 -8 -14 -24 -38 -22 -40
-30 -15 -57 16 -19 16 -19 -3 -14 -73 22 -73 22 -80 -20 -3 -21 -10 -51 -14
-68 -7 -25 -9 -18 -10 37 -1 71 -5 77 -54 87 -50 11 -45 31 7 31 l46 0 0 54
c0 29 3 69 7 87 7 29 9 20 17 -53 4 -49 13 -88 18 -88z m-3228 55 c6 -17 -2
-45 -13 -45 -4 0 -16 6 -26 14 -16 12 -17 16 -6 30 17 20 37 21 45 1z m2828
-91 c6 -12 28 -27 52 -34 59 -19 66 -30 20 -30 -60 0 -73 -15 -82 -95 l-9 -70
-8 73 c-8 79 -19 92 -74 92 -16 0 -33 5 -36 10 -4 6 10 10 34 10 45 0 71 20
71 54 0 26 13 44 18 24 2 -7 8 -23 14 -34z m927 -32 l30 -18 -30 -11 c-19 -8
-35 -23 -42 -42 -14 -39 -20 -39 -38 2 -10 22 -24 35 -46 42 -38 11 -44 25
-10 25 30 0 41 9 62 49 l17 35 14 -32 c7 -17 26 -40 43 -50z m735 -98 c11 -28
6 -44 -13 -44 -28 0 -47 26 -31 45 16 20 36 19 44 -1z m-3574 -95 c7 -12 26
-21 53 -26 l42 -6 -45 -11 c-46 -11 -61 -29 -77 -91 l-7 -30 -3 30 c-8 66 -21
82 -76 92 l-52 10 47 2 c54 1 70 18 83 86 l8 40 8 -38 c5 -21 14 -47 19 -58z
m929 -28 c8 -14 7 -22 -4 -31 -17 -14 -35 -5 -35 19 0 34 24 42 39 12z m-2239
-51 c-4 -3 -14 -16 -23 -30 -9 -13 -17 -18 -17 -11 0 8 -7 23 -16 33 -16 16
-16 18 0 24 9 3 16 12 16 20 0 9 8 6 23 -9 12 -12 20 -24 17 -27z m359 -50 c4
-8 26 -20 47 -27 38 -11 38 -11 8 -12 -42 -1 -61 -19 -75 -71 l-12 -45 -9 45
c-11 53 -22 65 -68 78 -24 7 -28 10 -13 11 47 2 71 22 79 65 l7 41 14 -35 c7
-19 17 -42 22 -50z m1573 -107 c12 -48 29 -58 128 -72 44 -6 53 -9 29 -10 -19
0 -58 -8 -85 -16 -55 -16 -77 -46 -89 -121 -17 -105 -29 -109 -38 -13 -8 95
-45 133 -145 148 l-47 8 60 8 c67 9 110 27 124 53 5 9 12 49 16 87 10 94 18
102 28 30 4 -33 13 -79 19 -102z m602 135 c3 -13 6 -50 6 -84 0 -86 8 -93 113
-96 118 -4 117 -22 -3 -28 l-95 -5 -12 -80 c-6 -44 -12 -81 -12 -82 -1 -2 -5
-3 -10 -3 -5 0 -12 28 -16 63 -13 107 -13 107 -100 107 -41 0 -75 4 -75 9 0
10 59 21 117 21 23 0 44 4 47 8 3 5 8 50 12 100 7 91 16 114 28 70z m1179
-123 c2 -25 7 -49 11 -52 3 -3 29 -11 58 -18 l53 -12 -53 -7 c-57 -9 -72 -24
-72 -73 0 -38 -10 -73 -21 -73 -5 0 -9 24 -9 53 0 28 -5 59 -10 67 -5 8 -33
20 -62 26 -29 7 -42 12 -28 13 14 1 42 6 63 12 29 8 37 15 37 33 0 38 12 86
20 81 4 -2 10 -25 13 -50z m954 -26 c15 -6 13 -9 -12 -19 -35 -13 -44 -26 -46
-60 0 -23 -2 -22 -13 8 -6 19 -23 42 -36 53 -20 15 -22 19 -8 19 10 0 27 13
40 30 l22 30 18 -27 c9 -15 25 -31 35 -34z m340 -186 c-6 -156 -22 -270 -57
-398 -52 -187 -160 -401 -251 -493 -38 -39 -50 -35 -20 6 12 17 21 35 21 41 0
6 4 11 8 11 10 0 87 159 122 250 11 30 27 69 35 85 65 144 135 452 135 596 0
38 3 69 7 69 3 0 3 -75 0 -167z m-3784 23 c7 -17 -19 -56 -38 -56 -26 0 -46
30 -35 51 13 22 65 26 73 5z m1723 -62 c-6 -17 -46 -19 -46 -2 0 6 8 20 17 30
15 17 18 17 26 3 5 -9 6 -23 3 -31z m-2271 -95 l50 -16 -35 -7 c-51 -9 -58
-17 -79 -75 l-18 -53 -18 55 c-17 54 -19 55 -69 70 -28 9 -42 16 -30 16 67 3
93 29 110 111 l7 35 16 -60 c16 -59 17 -60 66 -76z m3315 72 c0 -31 16 -51 42
-51 29 0 21 -16 -14 -26 -24 -7 -34 -17 -40 -42 -10 -36 -28 -43 -28 -11 0 33
-19 58 -53 72 l-31 13 40 16 c22 9 46 28 53 42 17 31 31 25 31 -13z m-3910
-119 c0 -25 19 -42 50 -43 25 -1 25 -1 -5 -14 -20 -9 -32 -22 -35 -41 -8 -43
-38 -44 -42 -2 -2 23 -10 36 -28 45 -25 13 -25 13 -2 13 17 0 26 8 33 30 12
33 29 40 29 12z m2143 -23 l22 0 -21 -9 c-12 -5 -28 -17 -35 -27 -13 -17 -15
-17 -41 9 -23 25 -24 28 -8 33 10 3 21 13 24 22 6 14 9 14 22 -5 8 -12 25 -22
37 -23z m2207 26 c0 -8 8 -22 18 -31 18 -15 18 -16 -2 -39 l-20 -23 -27 20
-27 20 22 34 c23 36 36 43 36 19z m-3120 -230 c6 -4 0 -15 -15 -27 -14 -11
-28 -19 -30 -17 -2 2 2 29 8 59 11 54 11 55 19 23 5 -18 13 -35 18 -38z m412
-115 l33 -30 -33 -32 -32 -33 -32 32 -32 33 29 30 c16 16 30 30 31 30 2 0 18
-14 36 -30z m2378 11 c0 -27 27 -51 56 -51 35 0 21 -16 -20 -24 -30 -6 -35
-11 -47 -54 l-12 -47 -7 42 c-7 48 -4 44 -49 65 l-34 16 33 7 c21 5 38 17 49
36 19 33 31 37 31 10z m-3462 -113 c7 -9 5 -19 -7 -34 -17 -21 -18 -21 -41 -4
-21 15 -22 20 -11 34 16 19 45 21 59 4z m1297 -112 l7 -84 77 -9 76 -9 -60
-12 c-78 -16 -89 -23 -93 -58 -6 -76 -14 -114 -23 -114 -5 0 -9 19 -9 43 0 23
-5 58 -10 78 -8 30 -17 38 -49 47 -21 7 -49 12 -62 12 -19 0 -21 2 -9 10 8 5
36 10 62 10 26 0 49 4 52 9 4 5 9 43 13 85 3 42 9 76 14 76 4 0 10 -38 14 -84z
m-1005 -21 c10 -12 10 -18 0 -30 -16 -19 -29 -19 -52 1 -17 16 -17 18 0 30 23
18 37 17 52 -1z m3924 -102 c-97 -174 -227 -358 -349 -492 -156 -173 -376
-343 -545 -422 -36 -17 -72 -34 -80 -38 -8 -4 -49 -18 -90 -31 -41 -12 -118
-35 -170 -51 -199 -62 -307 -84 -590 -120 -196 -25 -721 -37 -950 -20 -201 14
-421 37 -490 51 -96 18 -332 117 -304 127 7 2 67 -12 135 -32 155 -45 226 -61
409 -87 127 -18 196 -21 550 -22 372 -1 417 1 555 22 323 48 472 86 721 182
41 15 72 24 68 19 -17 -28 34 -28 101 0 11 5 44 19 73 31 148 59 454 288 608
452 32 35 87 97 121 139 67 83 253 354 254 373 0 7 2 7 5 -1 3 -7 -12 -43 -32
-80z m-2278 -11 l-24 -24 -22 22 -22 22 23 24 23 24 23 -22 24 -22 -25 -24z
m-2071 -127 c77 -101 261 -290 368 -381 148 -124 350 -255 522 -339 141 -69
321 -141 410 -164 104 -28 71 -42 -37 -16 -336 82 -604 202 -849 382 -83 60
-231 206 -267 262 -9 14 -23 33 -31 41 -34 36 -202 312 -173 285 6 -5 31 -37
57 -70z m2710 12 c-7 -26 -8 -26 -31 -9 -29 21 -30 26 -1 39 28 14 40 3 32
-30z m-1960 -121 c31 -8 32 -18 3 -31 -15 -6 -26 -24 -32 -47 l-9 -36 -21 41
c-14 27 -30 44 -46 47 l-25 6 33 17 c17 10 32 23 32 30 0 7 6 19 12 25 10 10
14 7 20 -17 6 -19 16 -31 33 -35z m1724 -26 c4 -8 23 -19 42 -24 l34 -10 -35
-5 c-30 -5 -37 -12 -50 -49 l-16 -44 -12 40 c-9 31 -20 43 -45 53 -29 11 -30
13 -10 16 25 5 63 47 64 72 0 10 4 6 11 -9 5 -14 13 -32 17 -40z m-2635 -32
c82 -104 77 -116 -15 -37 -63 54 -84 83 -74 99 14 22 36 6 89 -62z m1286 -43
c7 -8 25 -15 41 -15 43 0 35 -16 -13 -26 -41 -9 -43 -11 -51 -57 -11 -56 -22
-60 -30 -11 -8 45 -23 64 -53 64 -34 0 -30 15 7 26 32 9 36 14 59 69 l13 30 7
-32 c4 -18 13 -40 20 -48z m830 -61 c0 -18 -38 -28 -55 -14 -20 16 -19 30 3
46 14 10 20 10 35 -3 9 -9 17 -22 17 -29z m759 -28 c9 -10 8 -16 -4 -26 -17
-14 -45 -7 -45 13 0 29 30 37 49 13z m353 -106 c25 -23 28 -30 15 -30 -11 0
-24 -14 -34 -37 l-16 -38 -8 30 c-5 16 -19 37 -31 46 l-22 17 27 13 c15 7 27
16 27 21 0 13 7 10 42 -22z m567 -524 c-51 -35 -231 -127 -319 -163 -153 -64
-480 -153 -480 -132 0 5 8 9 18 9 29 0 374 106 436 134 17 8 56 26 86 39 91
41 182 85 230 112 57 32 76 33 29 1z m-504 -377 c17 -8 16 -8 -7 -4 -15 3 -39
0 -55 -6 -58 -22 -263 -62 -433 -85 -387 -52 -603 -61 -960 -40 -162 9 -338
24 -390 32 -169 27 -316 54 -385 71 -52 13 63 15 168 3 403 -46 960 -56 1427
-25 105 7 419 42 490 55 62 11 121 10 145 -1z m-1280 -9 c-7 -11 -264 -12
-365 0 -45 5 1 7 153 8 143 1 216 -1 212 -8z m-572 -150 c243 -35 1068 -60
1337 -41 142 10 283 25 348 36 17 3 32 2 32 -2 0 -21 -315 -67 -535 -79 -71
-4 -143 -11 -160 -16 -58 -17 -338 -29 -480 -21 l-140 8 255 6 c296 7 383 19
225 31 -55 4 -217 12 -360 17 -143 6 -285 15 -315 21 -30 5 -117 14 -194 20
-148 12 -221 28 -131 29 28 0 80 -4 118 -9z m-255 -57 c34 -17 35 -18 13 -21
-29 -4 -111 26 -111 40 0 14 50 4 98 -19z m67 -93 c17 -5 84 -18 150 -30 164
-29 168 -30 161 -37 -14 -14 -318 38 -368 64 -52 26 -28 27 57 3z m305 -5
c213 -26 364 -35 595 -35 246 0 586 21 724 45 47 8 86 13 88 11 9 -9 -83 -38
-167 -52 -124 -20 -763 -31 -965 -15 -154 12 -322 34 -430 56 -68 14 -69 14
-15 10 30 -3 107 -12 170 -20z m-160 -109 c36 -9 90 -20 120 -26 l55 -9 -65 5
c-77 5 -210 36 -210 47 0 5 8 6 18 3 9 -2 46 -12 82 -20z m1454 -78 c3 -13 2
-26 -2 -29 -12 -12 -171 -38 -262 -43 l-85 -6 65 14 c36 7 90 19 120 25 69 14
140 41 140 52 0 18 18 8 24 -13z m-1502 -4 c40 -9 136 -27 213 -40 l140 -23
-95 4 c-52 3 -137 8 -189 11 -77 5 -93 4 -89 -7 7 -24 111 -54 318 -95 41 -8
100 -21 130 -29 52 -13 45 -14 -135 -11 -135 3 -207 9 -250 20 -126 35 -151
51 -161 102 -9 48 2 84 26 84 10 0 52 -7 92 -16z m1508 -188 c0 -8 -10 -14
-22 -14 -13 1 -57 -2 -98 -6 -82 -7 -82 -4 0 18 73 19 120 20 120 2z m-1257
-56 c34 0 57 -4 57 -11 0 -7 -14 -9 -37 -5 -21 3 -65 8 -98 11 -75 7 -225 37
-225 46 0 3 55 -5 123 -17 67 -13 148 -23 180 -24z m1272 -2 c-9 -23 -91 -56
-155 -62 l-55 -6 58 15 c71 18 113 40 129 65 14 22 32 12 23 -12z m-1641 -6
c6 -11 122 -44 231 -67 135 -28 198 -44 207 -53 13 -13 -18 -181 -47 -261 -22
-58 -36 -79 -67 -101 -25 -19 -35 -31 -27 -36 6 -4 55 -15 107 -26 53 -10 98
-21 101 -23 8 -9 -138 6 -214 20 -80 16 -108 5 -50 -19 21 -9 44 -16 51 -16 8
0 14 -5 14 -11 0 -21 -430 23 -477 49 -8 5 18 36 80 93 104 97 140 153 161
253 13 62 12 68 -5 89 l-18 22 -17 -25 c-49 -70 -244 -249 -244 -224 0 4 15
25 33 48 69 86 127 193 153 284 4 14 20 16 28 4z m1801 -300 c50 -46 109 -107
133 -136 24 -28 59 -68 79 -88 26 -27 32 -38 20 -38 -9 0 -56 37 -104 83 -48
45 -136 127 -195 181 -104 95 -126 124 -113 146 7 12 31 -9 180 -148z m-1780
74 c-30 -51 -164 -181 -216 -210 -23 -12 3 19 76 91 61 61 121 128 135 151 34
54 38 25 5 -32z m1634 -103 c50 -53 91 -101 91 -105 0 -9 -164 151 -189 185
-8 10 -9 17 -3 17 6 0 51 -44 101 -97z m-1804 -288 c125 -28 236 -44 455 -65
118 -12 217 -23 219 -26 19 -18 -456 18 -585 46 -123 26 -195 47 -208 61 -12
12 -14 13 119 -16z m-258 -56 c15 0 15 -2 -3 -11 -17 -8 -30 -5 -62 16 -60 37
-62 51 -3 22 28 -14 58 -26 68 -27z m2258 -18 c-164 -60 -505 -102 -830 -100
-213 0 -169 15 70 22 105 3 222 11 260 16 39 6 106 15 150 20 81 10 257 37
330 51 67 13 73 10 20 -9z m-2227 -10 c47 -24 68 -30 262 -76 115 -27 599 -83
730 -85 53 0 23 -20 -41 -27 -78 -7 -519 42 -679 77 -112 24 -310 96 -310 113
0 10 16 9 38 -2z m169 -11 c54 -12 121 -25 148 -30 28 -6 66 -14 85 -19 71
-18 -13 -11 -110 10 -52 11 -122 25 -155 31 -33 6 -64 15 -69 20 -13 11 -11
11 101 -12z m2298 -39 c-47 -21 -261 -76 -355 -92 -124 -20 -286 -39 -425 -49
-141 -10 -492 -14 -484 -6 3 3 92 10 199 15 475 26 678 51 935 116 147 37 189
42 130 16z"/>
</g>
</svg>
