<?xml version="1.0" standalone="no"?>
<!DOCTYPE svg PUBLIC "-//W3C//DTD SVG 20010904//EN"
 "http://www.w3.org/TR/2001/REC-SVG-20010904/DTD/svg10.dtd">
<svg version="1.0" xmlns="http://www.w3.org/2000/svg"
 width="768.000000pt" height="768.000000pt" viewBox="0 0 768.000000 768.000000"
 preserveAspectRatio="xMidYMid meet">
<metadata>
Created by potrace 1.16, written by Peter Selinger 2001-2019
</metadata>
<g transform="translate(0.000000,768.000000) scale(0.100000,-0.100000)"
fill="#000000" stroke="none">
<path d="M3887 6864 c-4 -27 -10 -83 -15 -124 -5 -41 -28 -129 -50 -195 -22
-66 -50 -154 -62 -195 -38 -129 -47 -153 -54 -142 -8 14 4 93 16 109 5 7 7 17
4 22 -4 5 -2 12 4 16 5 3 10 19 10 36 0 28 -2 29 -44 29 -38 0 -45 3 -48 22
-2 12 -9 23 -16 26 -9 3 -11 -3 -6 -23 9 -35 -7 -45 -68 -45 -45 0 -48 2 -56
33 l-9 32 -8 -28 c-8 -32 -1 -202 10 -229 5 -13 1 -18 -17 -22 -58 -12 -184
-44 -199 -50 -12 -5 -19 6 -32 51 -35 123 -35 126 34 126 31 0 39 3 39 18 0
22 -38 27 -46 6 -3 -8 -16 -12 -32 -9 -25 3 -31 12 -52 73 -13 39 -27 72 -32
75 -18 11 -22 -8 -9 -49 28 -95 29 -115 10 -120 -11 -3 -19 -10 -19 -16 0 -8
6 -9 19 -2 21 12 27 1 56 -104 16 -56 16 -60 -1 -72 -10 -7 -23 -13 -30 -13
-18 0 -153 -45 -212 -70 -45 -20 -55 -21 -63 -9 -7 10 -8 5 -4 -16 5 -29 5
-30 -6 -5 -24 51 -39 88 -39 95 0 12 -90 142 -115 165 -23 21 -24 25 -10 40
14 16 14 18 -5 23 -17 4 -20 2 -15 -11 10 -30 -45 42 -66 85 -11 22 -30 49
-41 60 -20 18 -21 18 -14 -4 8 -24 17 -87 20 -138 1 -16 6 -38 10 -48 5 -10 4
-23 -3 -30 -8 -10 -7 -17 2 -26 9 -9 9 -14 -2 -20 -10 -7 -10 -10 -1 -13 7 -2
15 -21 17 -41 3 -35 2 -37 -24 -38 l-28 -1 32 -10 c17 -6 34 -16 37 -23 2 -7
26 -41 52 -76 27 -34 43 -64 38 -66 -33 -11 -196 -111 -237 -145 l-48 -40 -27
24 c-15 13 -53 48 -85 77 -46 42 -61 51 -70 41 -9 -9 -7 -16 11 -28 59 -43
142 -115 142 -123 0 -9 -72 -49 -90 -49 -6 0 -18 7 -27 16 -9 8 -22 13 -29 10
-8 -3 -14 -2 -14 3 0 5 -10 11 -22 15 -14 4 -19 9 -12 13 6 5 14 17 17 27 6
15 5 17 -6 7 -11 -8 -23 -8 -48 0 -49 17 -59 28 -59 61 0 22 -4 29 -15 25 -12
-5 -12 -2 -3 19 13 29 5 42 -17 24 -17 -14 -20 -65 -5 -75 5 -3 10 -11 10 -16
0 -5 -18 0 -40 11 l-40 20 0 78 c0 53 -3 72 -10 62 -5 -8 -10 -38 -10 -66 0
-28 -3 -54 -7 -57 -8 -9 -63 42 -63 59 0 6 -7 18 -17 25 -15 13 -16 11 -9 -16
4 -16 15 -38 24 -49 37 -41 -219 112 -336 201 -40 31 -76 52 -80 49 -4 -4 0
-13 9 -19 21 -16 241 -308 236 -313 -2 -3 -30 25 -62 61 -32 36 -60 64 -63 61
-3 -3 10 -20 27 -38 18 -18 47 -53 64 -76 18 -24 51 -68 75 -98 23 -29 42 -56
42 -59 0 -3 34 -57 75 -120 41 -64 75 -122 75 -130 0 -7 12 -22 26 -32 l25
-19 -23 -25 -23 -26 -93 49 c-52 26 -98 46 -103 42 -15 -9 -10 -24 9 -24 9 0
49 -22 88 -48 l72 -48 -20 -24 c-11 -14 -31 -38 -44 -53 -14 -15 -22 -31 -20
-36 3 -5 -4 -17 -15 -27 -11 -10 -17 -24 -14 -31 2 -8 1 -12 -4 -9 -4 3 -13
-6 -19 -19 -7 -14 -16 -25 -22 -25 -5 0 -10 -5 -10 -12 0 -7 -12 -24 -27 -38
l-28 -26 -70 36 c-38 19 -71 38 -73 43 -2 4 -10 7 -18 7 -8 0 -14 5 -14 10 0
7 -7 7 -21 0 -11 -7 -28 -9 -36 -6 -9 4 -22 1 -31 -6 -13 -11 -14 -8 -10 24 2
25 0 39 -9 42 -9 4 -13 -5 -13 -29 0 -33 -12 -46 -24 -27 -3 5 -19 9 -36 10
-17 0 -50 10 -73 20 -23 11 -53 23 -66 27 -43 13 -18 -17 40 -46 29 -16 48
-29 42 -29 -7 0 -13 -5 -13 -11 0 -7 10 -9 25 -5 19 5 23 3 19 -9 -4 -8 -1
-15 5 -15 6 0 11 5 11 10 0 6 7 10 15 10 9 0 12 -6 8 -17 -5 -12 -2 -15 8 -11
10 4 15 -1 16 -13 1 -12 -3 -16 -13 -12 -8 3 -14 3 -14 0 0 -3 21 -13 48 -22
34 -11 54 -27 74 -55 17 -25 38 -42 55 -45 32 -7 106 -27 111 -31 2 -1 -16
-40 -41 -86 -25 -46 -50 -100 -57 -120 -6 -21 -15 -38 -18 -38 -4 1 -32 9 -62
20 -68 24 -108 27 -91 6 7 -8 28 -17 47 -21 20 -3 47 -11 61 -18 21 -9 24 -16
19 -41 -10 -51 -38 -104 -60 -114 -19 -10 -19 -11 -2 -11 14 -1 17 -6 13 -23
-3 -13 -9 -49 -12 -81 -4 -31 -11 -59 -15 -62 -4 -2 -6 -15 -3 -27 5 -34 -11
-55 -30 -39 -9 7 -18 8 -21 3 -7 -13 4 -22 26 -22 10 0 18 -4 18 -8 0 -9 -44
-23 -210 -67 -52 -13 -121 -38 -155 -53 -100 -48 -217 -92 -226 -86 -5 3 -9 1
-9 -4 0 -15 -190 -61 -255 -62 -5 0 -3 -6 3 -12 7 -7 43 -16 80 -20 196 -22
226 -27 230 -37 2 -5 11 -7 21 -4 23 6 38 -15 17 -23 -9 -3 -16 -10 -16 -15 0
-5 11 -2 25 7 15 9 32 13 46 9 11 -4 32 -8 45 -10 36 -4 40 -12 13 -34 -13
-11 -20 -20 -15 -21 6 0 20 9 32 21 22 20 25 20 71 6 26 -9 77 -20 113 -26 36
-6 78 -15 93 -19 l28 -7 -26 -25 c-20 -19 -38 -25 -71 -25 -24 0 -44 -3 -44
-6 0 -16 32 -30 62 -29 63 4 87 0 102 -16 9 -8 16 -14 17 -12 6 30 8 78 2 78
-4 -1 -19 -7 -33 -15 -54 -31 -44 -8 12 28 43 27 49 22 46 -38 -2 -41 -6 -55
-18 -56 -8 -1 -22 -2 -30 -3 -8 -2 -37 -4 -65 -5 -49 -3 -49 -3 -16 -11 19 -5
56 -5 83 -1 34 6 48 5 45 -3 -2 -7 -39 -12 -94 -14 l-89 -3 4 -29 c2 -17 8
-33 13 -36 5 -3 9 -15 9 -26 0 -11 6 -26 14 -32 8 -6 17 -34 21 -63 7 -57 15
-50 -82 -74 -72 -17 -55 -31 28 -23 68 6 69 6 79 -20 13 -35 13 -86 -1 -86 -5
0 -7 -4 -4 -10 8 -13 74 -9 105 7 14 7 33 13 42 13 9 0 20 5 23 10 12 20 24 9
41 -37 10 -27 20 -52 24 -58 11 -16 40 -112 42 -138 1 -13 -13 -44 -32 -71
-32 -44 -35 -46 -47 -29 -8 10 -20 26 -28 36 -8 9 -15 22 -15 29 0 6 -2 9 -5
6 -10 -10 19 -87 33 -90 10 -2 8 -10 -9 -29 -13 -15 -44 -50 -68 -79 -24 -28
-49 -49 -56 -46 -7 2 -12 -2 -11 -10 0 -8 -12 -22 -29 -32 -16 -9 -32 -18 -34
-20 -10 -5 11 -15 51 -23 41 -7 110 2 153 20 11 5 58 25 104 45 l84 36 18 -21
c10 -11 20 -26 23 -32 3 -9 7 -8 14 1 7 10 12 9 23 -4 12 -16 12 -17 -3 -11
-29 10 -22 -4 42 -91 33 -45 60 -85 60 -89 0 -4 10 -17 22 -30 l22 -23 -24
-18 c-13 -9 -41 -26 -61 -38 -21 -12 -36 -24 -33 -27 7 -7 61 20 102 50 18 14
34 23 36 22 1 -2 15 -20 30 -40 l27 -37 -73 -121 c-40 -67 -75 -116 -77 -110
-2 6 -12 2 -25 -9 -12 -12 -38 -21 -61 -23 -57 -4 -67 -13 -20 -19 25 -3 41
-11 43 -20 3 -17 -40 -40 -75 -40 -13 0 -23 -4 -23 -10 0 -5 16 -10 35 -10 41
0 43 -7 13 -40 -12 -13 -24 -31 -25 -41 -4 -29 -85 -161 -145 -238 -32 -41
-56 -76 -53 -79 3 -3 26 13 52 36 98 85 360 247 458 283 9 3 138 82 259 158
20 13 30 8 142 -68 119 -80 121 -82 118 -116 -2 -26 3 -38 17 -45 28 -15 24
-32 -6 -24 -28 7 -33 -7 -10 -26 17 -14 20 -40 5 -40 -5 0 -10 -16 -10 -36 0
-19 -5 -44 -10 -55 -6 -10 -12 -36 -14 -56 -2 -21 -6 -54 -10 -73 -4 -19 -8
-48 -10 -65 -5 -41 -15 -62 -32 -69 -8 -3 -14 -18 -14 -33 0 -28 1 -27 38 17
20 24 52 58 70 74 18 16 43 46 54 65 12 20 25 38 28 41 19 16 129 151 148 183
13 20 26 37 28 37 2 0 21 -9 41 -20 21 -11 43 -20 50 -20 7 0 24 -5 38 -12 25
-11 26 -16 21 -53 -9 -58 -37 -127 -50 -122 -6 2 -36 12 -66 22 -30 10 -61 22
-68 28 -20 16 -27 -1 -8 -22 25 -28 78 -51 116 -51 l32 0 -7 -42 c-4 -24 -16
-62 -26 -85 -22 -48 -23 -57 -9 -48 12 7 50 88 50 107 0 7 7 22 15 32 8 11 15
28 15 39 0 10 7 42 16 70 28 93 36 108 48 98 10 -8 71 -28 184 -62 31 -9 41
-17 38 -28 -3 -9 -10 -44 -17 -79 -6 -35 -18 -70 -25 -77 -9 -9 -10 -15 -3
-17 8 -3 8 -22 -1 -68 -6 -36 -14 -79 -16 -96 -11 -60 12 -42 25 19 7 34 18
82 26 107 7 25 16 73 19 108 10 89 23 115 55 108 15 -3 52 -11 84 -17 65 -13
76 -26 53 -61 -13 -20 -13 -27 1 -58 8 -19 17 -30 20 -23 2 7 -1 22 -8 34 -9
18 -9 25 2 33 8 6 13 21 11 34 -3 18 0 21 20 18 13 -3 29 -5 36 -5 6 -1 12 -5
12 -10 0 -5 -10 -7 -22 -3 -20 5 -21 2 -15 -37 5 -37 4 -40 -8 -24 -7 10 -17
14 -21 10 -13 -12 21 -38 40 -31 13 5 16 14 12 33 -3 14 -3 20 0 13 5 -10 9
-10 20 -1 11 9 14 6 14 -17 1 -28 1 -28 15 -10 19 25 33 12 17 -14 -16 -26
-15 -41 2 -34 16 6 29 -26 28 -69 -1 -24 3 -27 25 -25 25 3 27 0 55 -112 40
-157 50 -210 45 -237 -3 -14 1 -23 8 -23 8 0 17 28 24 74 6 41 17 94 25 118 7
23 24 81 37 128 12 47 26 90 30 95 3 6 15 47 25 93 18 81 19 83 54 91 52 13
201 27 205 20 3 -3 7 -44 11 -90 7 -84 16 -109 39 -109 22 0 25 29 6 72 -10
24 -21 67 -24 95 -6 51 -5 53 21 59 15 3 38 9 52 14 14 5 45 12 68 15 36 6
186 53 254 80 12 5 23 -5 44 -42 15 -26 51 -82 80 -123 44 -63 125 -218 147
-282 8 -23 30 -23 23 0 -17 59 -56 269 -61 332 -4 40 -15 97 -26 125 -23 59
-22 55 -7 55 13 0 204 95 225 112 7 5 18 6 24 2 7 -4 9 -3 6 3 -4 6 1 17 11
26 24 22 154 97 168 97 7 0 33 -31 58 -69 42 -64 66 -92 66 -76 0 3 -18 40
-41 81 -59 107 -45 126 59 78 153 -70 202 -97 194 -108 -14 -18 -44 -125 -40
-138 5 -14 46 72 55 114 l5 27 64 -32 c57 -28 62 -33 49 -47 -15 -17 -21 -110
-8 -124 8 -8 33 68 33 102 0 26 12 28 50 6 15 -10 26 -24 24 -33 -10 -51 -12
-104 -3 -90 5 7 9 33 9 57 0 23 4 42 9 42 26 0 161 -83 239 -148 28 -24 52
-38 52 -32 0 7 -29 43 -64 81 -90 97 -192 255 -301 464 -72 138 -88 164 -98
158 -6 -4 -8 0 -4 10 6 16 -15 42 -26 31 -3 -3 -3 3 0 15 5 20 14 25 40 22 7
-1 10 4 8 11 -6 16 31 78 46 78 6 0 9 7 5 15 -3 8 -1 15 4 15 6 0 10 8 11 18
0 10 3 12 6 5 6 -16 33 -17 33 -2 0 6 7 18 16 26 8 9 13 24 11 34 -3 10 0 16
7 13 6 -2 19 10 29 27 14 25 14 30 3 26 -16 -6 -14 5 9 58 8 17 20 45 27 62 7
18 16 33 19 33 9 0 -2 -49 -12 -56 -12 -7 -11 -24 1 -24 6 0 10 6 10 14 0 24
26 25 61 4 19 -11 37 -25 41 -31 3 -6 17 -12 29 -14 13 -2 35 -10 51 -17 15
-8 30 -11 32 -7 5 8 -145 101 -162 101 -16 0 -24 18 -15 33 15 23 39 106 38
126 -1 12 -1 21 0 21 2 0 22 -11 47 -25 24 -13 91 -42 149 -64 57 -22 129 -51
159 -65 68 -32 95 -34 80 -7 -5 11 -10 29 -10 40 0 17 -6 21 -34 21 -26 0 -36
5 -41 20 -3 11 -10 20 -15 20 -6 0 -212 118 -257 147 -8 6 -7 34 7 111 22 121
31 149 24 72 -5 -52 -4 -57 19 -69 52 -28 97 30 97 124 0 49 2 56 18 51 9 -2
33 -7 52 -11 62 -12 105 -28 123 -48 16 -18 19 -18 41 -3 24 15 24 17 10 46
-17 34 -29 38 -38 14 -5 -12 -15 -15 -39 -11 -67 11 -132 29 -144 41 -17 17 7
134 32 152 10 8 13 14 7 14 -13 0 -16 32 -4 44 4 4 7 15 8 24 3 49 5 52 28 52
15 0 26 -7 29 -20 3 -11 10 -20 16 -20 15 0 14 27 -1 36 -7 5 -5 11 7 21 27
19 34 17 52 -22 9 -19 20 -35 25 -35 11 0 10 28 -2 35 -5 3 -10 15 -10 26 0
34 30 18 57 -31 28 -51 40 -66 48 -59 3 3 -4 24 -15 47 -41 85 -42 89 -10 84
20 -3 42 -21 72 -58 23 -30 46 -54 50 -54 17 0 6 21 -37 71 -25 29 -45 62 -45
73 0 16 3 18 9 7 6 -10 13 -10 29 -2 18 10 27 4 76 -46 30 -32 58 -54 62 -50
4 4 -17 32 -46 62 -30 30 -49 55 -42 55 7 0 11 4 7 9 -10 17 47 1 92 -26 58
-34 67 -22 11 14 -41 26 -42 28 -18 31 14 2 29 10 33 18 7 12 13 11 34 -6 34
-26 64 -27 32 -1 -33 27 -25 29 159 47 77 7 85 22 16 29 -92 10 -124 17 -124
25 0 4 -9 6 -20 3 -21 -5 -28 11 -10 22 6 3 10 11 10 17 0 5 -15 1 -33 -10
-29 -16 -37 -17 -57 -7 l-23 12 32 24 c17 12 31 26 31 31 0 17 -28 7 -55 -22
-22 -23 -34 -28 -54 -23 -46 10 -47 21 -6 63 56 58 34 63 -24 6 -34 -34 -55
-47 -66 -42 -11 4 -14 12 -10 26 8 25 -10 27 -20 3 -6 -17 -7 -17 -19 -1 -7
10 -15 15 -18 12 -9 -8 -88 15 -88 26 0 5 5 12 10 15 6 3 10 13 10 22 0 11 -7
7 -21 -11 -15 -20 -25 -24 -32 -17 -6 6 -19 11 -29 11 -10 0 -18 5 -18 10 0 6
-12 10 -26 10 -22 0 -25 4 -21 21 5 18 2 20 -18 15 -20 -5 -23 -3 -18 10 3 9
1 19 -5 23 -5 3 -8 18 -5 33 5 28 26 38 81 38 23 0 32 4 29 13 -5 15 -69 10
-79 -6 -11 -18 -35 10 -42 51 -3 20 -10 59 -15 86 -11 66 -1 76 82 76 51 0 67
-4 82 -20 21 -23 45 -26 45 -6 0 8 7 22 16 30 34 35 -15 47 -83 22 -21 -8 -66
-17 -101 -19 -72 -6 -70 -9 -81 121 -7 85 -1 81 -86 68 -36 -6 -34 -4 20 18
33 13 76 29 95 36 19 7 43 17 53 22 12 6 23 5 33 -3 11 -9 15 -8 20 5 4 10 13
15 20 12 14 -5 70 19 80 35 3 5 15 7 25 4 11 -4 27 -1 35 6 13 10 17 10 24 -1
5 -8 12 -11 17 -7 18 19 -15 42 -65 45 l-50 3 16 29 c9 17 21 30 25 30 5 0 5
5 1 11 -4 7 -17 0 -36 -17 l-29 -29 -142 4 c-78 1 -144 5 -147 7 -2 3 -6 16
-7 29 -2 14 -18 47 -35 75 -17 28 -28 53 -25 57 4 3 51 32 104 64 92 55 97 57
120 42 13 -9 26 -13 29 -11 8 9 -5 33 -25 45 -16 10 -26 8 -56 -12 -44 -30
-159 -85 -178 -85 -7 0 -21 15 -30 33 -9 17 -34 60 -56 94 -45 68 -44 70 27
98 51 21 54 35 7 35 -25 0 -35 -4 -35 -16 0 -9 -6 -14 -12 -11 -7 2 -18 -3
-24 -11 -9 -12 -15 -9 -36 19 -13 19 -30 47 -36 63 -11 25 -11 28 4 22 15 -6
15 -4 -1 20 -16 26 -16 26 7 19 16 -4 19 -3 9 3 -7 5 -10 15 -6 21 4 7 1 19
-6 27 -17 20 4 43 24 26 8 -7 17 -9 20 -5 12 11 7 21 -13 26 -21 5 -21 5 -1
40 11 19 18 37 16 39 -4 4 12 53 35 103 32 72 59 134 79 180 50 114 97 198
146 260 69 87 51 89 -42 4 -79 -72 -107 -91 -223 -149 -47 -23 -93 -46 -102
-51 -30 -15 -38 -10 -31 21 3 17 1 30 -4 30 -6 0 -13 -14 -17 -30 -3 -17 -18
-43 -33 -58 l-27 -27 -8 40 c-5 22 -13 44 -17 48 -10 10 -26 -67 -17 -82 8
-12 -42 -44 -59 -37 -8 3 -18 20 -23 38 -6 23 -15 34 -30 36 -27 4 -27 1 -2
-40 l19 -32 -38 -38 c-22 -20 -52 -40 -68 -44 -15 -4 -37 -13 -48 -20 -17 -12
-17 -14 -2 -14 9 0 17 -4 17 -10 0 -5 -5 -10 -11 -10 -6 0 -34 -16 -63 -35
-29 -19 -57 -35 -63 -35 -5 0 -22 14 -38 30 -26 27 -55 40 -55 23 0 -3 18 -23
41 -43 35 -31 39 -38 25 -49 -12 -10 -24 -6 -68 26 -78 57 -126 85 -140 81 -7
-3 31 -33 83 -69 51 -35 93 -68 91 -72 -1 -4 4 -15 13 -23 18 -19 20 -44 2
-44 -18 0 -37 21 -37 42 0 11 -5 15 -14 12 -21 -8 -166 83 -166 104 0 9 -7 11
-20 7 -15 -5 -22 -1 -28 15 -7 20 -9 20 -21 6 -8 -9 -12 -18 -10 -20 2 -1 22
-13 44 -26 61 -37 81 -60 51 -60 -8 0 -21 8 -28 18 -7 9 -18 18 -25 19 -7 2
-34 16 -61 33 -27 16 -54 30 -59 30 -6 0 -16 7 -23 15 -19 23 15 20 50 -5 21
-15 31 -17 36 -8 4 7 2 14 -6 16 -8 3 -24 15 -36 27 -16 16 -26 20 -39 12 -11
-6 -21 -5 -28 2 -8 8 -8 11 1 11 7 0 12 7 12 15 0 8 5 15 10 15 6 0 10 6 10
14 0 8 7 17 16 20 9 3 14 13 11 20 -4 11 3 10 31 -4 20 -11 63 -31 95 -45 31
-15 57 -32 57 -40 0 -8 7 -11 19 -8 10 3 37 -7 60 -21 22 -15 41 -22 41 -18 0
9 -112 74 -195 113 -54 26 -75 42 -75 58 0 24 35 81 50 81 40 0 265 -130 362
-207 45 -37 73 -43 63 -14 -4 15 6 24 55 49 l60 30 -36 39 c-25 25 -38 34 -42
25 -2 -7 6 -24 18 -37 21 -22 21 -25 7 -40 -9 -9 -20 -16 -24 -17 -4 0 -18 -4
-31 -9 -32 -12 -37 -12 -56 10 -10 11 -43 32 -73 47 -30 16 -58 34 -60 41 -8
21 5 60 33 92 21 26 24 34 14 46 -16 20 -29 19 -36 -2 -18 -55 -58 -123 -68
-114 -6 4 -47 28 -91 51 -44 23 -82 44 -84 46 -3 3 0 7 51 68 18 21 33 44 34
50 0 6 2 21 2 34 1 13 9 22 18 22 8 0 12 5 9 11 -4 5 1 19 10 29 16 17 15 19
-3 29 -17 9 -19 16 -11 41 5 16 13 43 18 60 6 19 5 42 -1 63 -8 26 -6 50 11
111 12 43 20 81 17 83 -6 6 -66 -88 -66 -104 0 -7 -48 -59 -107 -117 -92 -89
-109 -102 -118 -89 -10 14 -13 12 -19 -11 -4 -15 -18 -32 -31 -38 -32 -14 -33
-45 -2 -50 26 -3 26 -31 0 -86 -14 -30 -19 -32 -47 -26 -16 3 -37 10 -46 14
-8 5 -61 23 -118 41 -56 17 -104 35 -107 39 -5 8 31 128 44 148 7 12 13 11 38
-1 37 -19 85 -25 90 -12 2 6 -17 17 -41 24 -67 19 -70 27 -53 118 8 43 17 85
19 93 1 8 -3 15 -11 15 -8 0 -23 -29 -37 -70 -32 -97 -42 -111 -78 -123 -22
-7 -25 -10 -11 -11 44 -3 48 -13 30 -87 -10 -38 -20 -72 -24 -76 -6 -7 -123
12 -168 27 -26 8 -28 28 -12 105 12 58 26 68 69 50 36 -15 60 -4 33 15 -11 7
-26 13 -34 13 -47 -3 -47 -2 -42 85 6 100 -13 88 -23 -16 -4 -37 -9 -69 -13
-71 -11 -6 -71 24 -72 37 -1 6 -2 19 -3 27 -1 10 -13 15 -39 16 -32 1 -37 -1
-32 -17 4 -13 1 -19 -9 -19 -21 0 -27 13 -32 73 -3 30 -11 57 -20 63 -12 10
-12 13 -2 18 9 4 10 8 2 11 -7 3 -10 15 -7 25 4 16 0 20 -18 21 -17 1 -19 3
-6 6 19 5 23 19 7 25 -6 2 -12 14 -12 28 -1 14 -6 28 -11 31 -5 4 -9 18 -9 33
0 14 -5 26 -10 26 -6 0 -8 6 -5 14 3 8 3 17 -1 21 -7 7 -8 12 -10 56 -1 14 -8
34 -16 44 -12 17 -14 14 -19 -31z m-190 -494 c11 0 14 -6 9 -22 -3 -13 -11
-48 -18 -79 l-11 -56 -61 -6 c-34 -3 -69 -9 -79 -12 -14 -6 -17 -1 -17 26 -1
19 -2 58 -3 87 -1 28 1 52 5 53 5 0 24 1 43 1 52 0 55 -1 55 -12 0 -5 -8 -10
-17 -10 -14 0 -13 -4 6 -21 20 -19 21 -23 7 -37 -13 -15 -12 -17 15 -18 23 -1
29 3 29 20 0 12 -7 34 -15 50 -19 36 -19 36 5 36 11 0 19 3 19 8 -3 17 4 25 8
10 2 -10 11 -18 20 -18z m347 -37 c3 -21 6 -56 5 -78 0 -53 -14 -21 -23 58 -8
63 7 81 18 20z m153 3 c3 -3 2 -36 -3 -73 -9 -67 -9 -68 -38 -66 -36 3 -43 13
-51 75 -4 26 -10 46 -15 43 -8 -5 -21 31 -14 38 5 5 114 -10 121 -17z m773
-128 c-18 -51 -39 -102 -48 -113 l-14 -20 7 20 c4 11 21 56 37 100 16 44 32
88 35 98 3 10 8 16 10 13 3 -2 -10 -47 -27 -98z m-990 -148 c16 -80 31 -172
35 -205 3 -33 8 -71 11 -83 3 -15 1 -21 -6 -17 -5 3 -10 22 -10 41 0 19 -6 65
-14 102 -29 132 -45 228 -50 292 -3 36 -3 54 0 40 3 -14 18 -90 34 -170z
m-122 -140 l-3 -145 -10 145 c-5 80 -8 170 -6 200 l4 55 9 -55 c5 -30 7 -120
6 -200z m197 175 c14 -93 15 -105 5 -105 -10 0 -16 31 -24 125 -7 70 8 55 19
-20z m-549 56 c-4 -5 -25 -12 -49 -16 -23 -4 -64 -13 -91 -21 -66 -19 -103
-19 -61 0 62 28 212 56 201 37z m728 0 c3 -5 27 -12 53 -15 64 -9 113 -25 113
-37 0 -6 -14 -7 -33 -4 -24 5 -37 2 -47 -10 -12 -15 -12 -17 5 -14 11 2 26 0
34 -5 10 -6 12 -5 7 2 -4 7 -2 12 3 12 6 0 11 -6 11 -14 0 -25 21 -29 40 -8
14 14 16 22 7 25 -7 2 -9 7 -6 11 7 7 111 -18 139 -33 9 -5 31 -12 50 -16 19
-4 40 -11 45 -15 6 -4 25 -11 43 -15 17 -3 32 -9 32 -12 0 -2 -14 -25 -32 -49
-35 -50 -52 -53 -113 -24 -22 11 -48 19 -57 20 -9 0 -19 4 -22 9 -3 5 -26 12
-51 16 -25 3 -89 17 -142 31 -52 13 -106 24 -119 24 -31 0 -36 12 -21 47 7 18
18 27 29 25 9 -2 19 2 23 7 3 7 -3 11 -14 11 -14 0 -21 6 -21 20 0 21 33 29
44 11z m-734 -50 c0 -3 25 -4 56 -3 30 2 71 1 90 -2 33 -7 34 -9 34 -51 0 -50
12 -43 -150 -80 -41 -9 -115 -30 -165 -45 -49 -16 -123 -38 -164 -50 -40 -12
-100 -33 -132 -45 -44 -17 -59 -20 -59 -10 0 7 10 15 23 18 32 8 109 36 128
46 9 5 34 13 55 17 22 3 44 10 49 14 6 4 31 11 57 14 26 4 50 11 53 17 4 5 17
9 31 9 13 0 24 5 24 10 0 6 -9 10 -19 10 -11 0 -23 -4 -26 -10 -3 -5 -21 -10
-38 -10 -25 0 -35 6 -44 27 -22 46 -16 70 18 82 18 6 45 11 60 11 15 0 31 5
34 10 3 6 21 10 38 11 18 0 26 3 19 6 -6 2 -10 9 -7 13 6 10 35 2 35 -9z m660
-15 c0 -8 -6 -19 -14 -26 -8 -6 -12 -18 -9 -26 6 -16 -32 -20 -42 -4 -3 6 -1
10 4 10 6 0 11 7 11 15 0 8 7 15 15 15 8 0 15 9 15 21 0 11 5 17 10 14 6 -3
10 -12 10 -19z m-925 -5 c-3 -6 -17 -11 -31 -11 -13 0 -24 -4 -24 -10 0 -5 -7
-10 -16 -10 -9 0 -30 -6 -47 -14 -18 -8 -60 -25 -95 -38 -49 -18 -62 -27 -58
-41 2 -9 0 -15 -5 -11 -5 3 -9 14 -9 25 0 24 65 56 181 89 41 12 81 25 89 29
18 10 25 6 15 -8z m31 -58 c3 -10 11 -28 17 -41 13 -28 0 -55 -29 -60 -42 -7
-156 -45 -201 -67 -26 -12 -51 -21 -56 -18 -13 8 -39 65 -34 77 3 7 24 18 48
26 24 7 49 19 54 25 8 10 164 71 188 74 4 1 10 -7 13 -16z m1082 -62 c-4 -19
-55 -28 -71 -12 -18 18 9 38 43 33 22 -3 30 -9 28 -21z m215 -48 c38 -15 67
-31 67 -39 0 -17 22 -18 39 -1 11 10 11 8 2 -11 -13 -24 -22 -24 -86 3 -16 7
-52 21 -80 30 -61 22 -57 19 -49 39 4 11 12 15 23 11 9 -4 46 -18 84 -32z
m1297 -11 c-25 -16 -72 -43 -105 -61 -32 -18 -71 -40 -85 -49 -38 -25 -60 -38
-115 -68 -27 -14 -76 -44 -108 -66 -34 -23 -65 -37 -74 -34 -11 5 -14 1 -10
-13 7 -26 -36 -50 -58 -31 -8 7 -15 16 -15 20 0 11 64 48 95 56 14 3 25 10 25
14 0 4 12 11 27 15 15 3 30 10 33 14 3 4 31 19 64 34 32 15 84 44 115 64 65
42 231 131 246 132 6 0 -10 -12 -35 -27z m-3080 0 c0 -4 -20 -18 -45 -30 -67
-32 -215 -130 -215 -142 0 -17 21 -11 54 13 17 13 74 49 126 80 95 57 140 70
140 43 0 -8 12 -29 26 -46 15 -17 25 -33 22 -35 -5 -5 -83 -48 -133 -73 -16
-9 -32 -18 -35 -22 -3 -3 -23 -17 -45 -30 -22 -13 -52 -37 -66 -53 -15 -17
-31 -27 -38 -23 -6 4 -11 2 -11 -5 0 -14 -29 -49 -41 -49 -4 0 -9 12 -11 27
-2 14 -9 28 -15 31 -9 2 -11 -5 -7 -27 8 -37 -1 -39 -33 -9 -28 26 -29 38 -3
38 32 0 23 17 -9 18 -16 0 -41 7 -55 14 l-26 13 51 38 51 38 67 -45 c38 -26
68 -40 70 -33 5 13 -76 87 -95 87 -8 0 -14 3 -14 8 1 12 127 101 203 142 74
41 87 46 87 32z m1651 -3 c19 -6 48 -17 66 -25 17 -8 35 -14 40 -14 18 0 94
-41 99 -54 2 -6 -2 -29 -11 -49 l-16 -38 -33 26 c-18 14 -42 25 -52 25 -11 0
-24 4 -29 9 -6 4 -45 16 -87 26 -43 10 -75 21 -73 25 10 16 255 -54 255 -72 0
-4 5 -8 10 -8 6 0 10 11 10 25 0 16 -6 25 -15 25 -8 0 -15 4 -15 10 0 5 -16
12 -37 16 -20 4 -48 13 -62 20 -14 8 -42 17 -61 20 -37 7 -60 20 -60 35 0 12
30 11 71 -2z m1458 -166 c-41 -78 -131 -223 -239 -383 -6 -8 -19 -28 -30 -45
-11 -16 -20 -26 -20 -22 0 4 -6 2 -14 -5 -7 -7 -11 -19 -8 -27 3 -8 1 -12 -5
-8 -6 4 -37 -23 -68 -59 -32 -35 -60 -63 -62 -60 -7 7 8 29 47 73 19 21 51 58
71 83 39 50 312 460 350 527 13 23 25 38 27 33 2 -5 -20 -53 -49 -107z m-2114
12 c-4 -50 6 -73 18 -42 4 9 6 9 6 -1 1 -15 -24 -26 -43 -19 -12 5 -13 14 -2
61 7 31 10 59 7 62 -3 4 0 4 6 0 9 -5 11 -25 8 -61z m-863 3 c3 -8 -14 -18
-45 -26 -28 -7 -52 -11 -54 -8 -4 4 77 46 89 46 3 0 8 -6 10 -12z m143 -138
c12 -13 13 -19 4 -22 -10 -3 -9 -19 4 -71 18 -71 23 -141 5 -77 -5 19 -15 64
-22 100 -12 63 -36 113 -61 128 -8 4 -11 20 -7 41 l5 33 28 -57 c15 -31 35
-65 44 -75z m-279 75 c-10 -8 -24 -16 -30 -18 -7 -3 -3 -11 8 -19 22 -17 14
-38 -15 -38 -22 0 -24 11 -7 28 22 22 -17 14 -46 -9 -15 -12 -29 -19 -32 -16
-6 6 8 15 86 61 49 28 66 34 36 11z m1069 -445 c-8 -107 -20 -233 -25 -280 -6
-47 -14 -175 -18 -285 -5 -110 -13 -208 -18 -217 -9 -16 -12 -16 -37 7 l-28
24 15 123 c9 68 20 159 26 203 17 145 31 248 50 370 10 66 25 208 32 315 l13
195 3 -130 c2 -71 -4 -218 -13 -325z m937 393 c-5 -10 -13 -38 -17 -63 -10
-64 -68 -179 -80 -160 -5 8 -10 8 -20 0 -7 -6 -20 -8 -29 -4 -12 5 -15 2 -10
-10 5 -12 0 -19 -15 -23 -11 -3 -21 -9 -21 -14 0 -5 -4 -9 -10 -9 -6 0 -6 9 1
26 5 15 7 29 4 32 -7 8 -86 -78 -80 -87 2 -5 -1 -14 -8 -19 -10 -9 -13 -4 -13
20 1 18 -5 33 -13 36 -8 3 -11 0 -7 -7 4 -6 2 -11 -3 -11 -17 0 -13 10 16 49
l27 36 -43 -38 c-23 -21 -49 -36 -57 -33 -7 3 -16 1 -19 -5 -10 -15 -25 0 -18
19 4 9 22 41 40 71 19 29 32 56 29 59 -8 7 -50 -33 -78 -74 -12 -18 -33 -38
-46 -43 -30 -14 -32 -14 -32 3 0 7 -7 19 -15 26 -8 7 -15 18 -15 26 0 17 56
81 84 96 29 16 179 68 183 64 2 -1 -2 -16 -8 -33 -5 -17 -9 -53 -7 -79 l3 -49
80 0 80 0 32 50 c18 28 31 56 28 63 -3 8 0 10 6 6 8 -4 9 1 4 15 -5 16 1 32
20 57 28 36 44 41 27 7z m785 -31 c-34 -32 -93 -85 -132 -117 -38 -32 -79 -68
-90 -79 -50 -53 -157 -136 -211 -163 -32 -17 -75 -40 -94 -52 -19 -11 -42 -21
-50 -21 -8 0 34 27 93 59 118 65 169 102 267 197 75 72 262 233 272 234 3 0
-21 -26 -55 -58z m-1628 4 l23 -25 -23 5 c-22 5 -23 4 -6 -9 9 -8 17 -26 17
-41 0 -18 6 -26 18 -27 16 -1 16 -2 0 -6 -28 -7 -21 -28 22 -69 29 -28 38 -43
34 -57 -5 -17 -3 -19 20 -13 26 6 31 0 27 -31 -1 -7 3 -13 8 -13 16 0 23 -38
11 -60 -8 -16 -8 -20 3 -20 15 0 37 -150 37 -250 0 -27 4 -60 10 -74 6 -17 6
-26 -1 -26 -11 0 -15 10 -24 63 -3 20 -10 37 -16 37 -6 0 -8 -4 -5 -8 3 -5 1
-26 -5 -46 -10 -34 -13 -37 -37 -31 -33 8 -53 25 -30 25 8 0 22 7 29 16 12 15
11 16 -9 10 -17 -6 -24 -3 -31 16 -5 14 -5 24 1 26 5 3 5 9 0 15 -5 7 -14 28
-20 47 -11 34 -43 228 -47 280 -1 14 -5 34 -8 45 -12 37 -33 245 -25 245 2 0
15 -11 27 -24z m-159 4 c0 -5 -7 -10 -16 -10 -12 0 -11 -5 7 -20 l24 -19 -37
-1 c-31 0 -38 4 -38 20 0 19 24 39 48 40 6 0 12 -4 12 -10z m-316 -98 c29 -76
17 -78 -19 -3 -19 40 -35 76 -35 79 0 17 39 -38 54 -76z m631 31 c4 -16 11
-47 16 -71 6 -25 6 -49 1 -59 -7 -11 -14 4 -26 57 -9 40 -16 79 -16 86 0 25
19 15 25 -13z m110 -16 c10 -14 11 -25 5 -31 -6 -6 -10 -20 -10 -32 0 -46 -15
-30 -30 30 -14 60 -14 63 3 58 10 -2 24 -14 32 -25z m-418 -2 c2 -6 -17 -11
-42 -12 -43 -1 -54 5 -38 21 10 10 76 3 80 -9z m-402 -14 c-3 -5 -1 -12 5 -16
6 -4 8 -11 4 -16 -3 -5 0 -17 8 -26 11 -15 11 -16 -4 -10 -14 5 -18 1 -18 -18
0 -37 -16 -38 -45 -3 -21 25 -28 29 -36 17 -5 -8 -9 -9 -9 -3 0 12 45 56 75
72 25 14 28 14 20 3z m373 -28 c2 -8 -6 -13 -24 -13 -43 0 -14 -16 34 -19 9
-1 10 -6 2 -20 -7 -14 -6 -21 3 -25 6 -3 -10 -4 -38 -3 -40 2 -51 6 -53 21 -3
15 0 17 14 11 36 -15 64 -17 64 -6 0 6 -13 11 -29 11 -36 0 -46 13 -31 40 12
23 50 24 58 3z m-1461 -150 c60 -82 119 -161 130 -178 21 -31 83 -144 83 -152
0 -14 -22 14 -45 59 -27 51 -89 145 -145 218 -42 56 -141 200 -137 200 3 0 54
-66 114 -147z m993 25 c0 -4 19 -36 43 -71 24 -34 47 -69 51 -77 9 -18 -23 18
-44 50 -8 12 -27 40 -42 61 -16 21 -28 43 -28 49 0 5 -3 10 -8 10 -4 0 -13 10
-21 23 -11 17 -7 16 18 -7 17 -17 31 -33 31 -38z m342 -123 c-11 -60 -16 -112
-13 -115 3 -3 7 -36 9 -75 5 -147 3 -139 42 -145 39 -6 32 -14 -21 -24 -35 -6
-36 -6 -35 26 0 18 -9 62 -18 98 -22 79 -17 179 15 285 12 39 24 86 28 105 l6
35 3 -40 c1 -22 -6 -89 -16 -150z m-1223 127 c20 -15 60 -43 89 -61 29 -19 51
-35 49 -38 -7 -6 -117 62 -157 96 -44 38 -30 40 19 3z m1359 -8 c0 -23 -4 -25
-29 -22 -16 3 -29 1 -29 -3 0 -4 -9 -5 -21 -2 -13 4 -17 9 -10 16 5 5 7 16 4
23 -4 11 6 14 40 14 41 0 45 -2 45 -26z m-268 -96 c0 -35 -10 -35 -49 -1 l-31
27 22 23 22 24 18 -23 c10 -13 18 -35 18 -50z m205 52 c3 -5 18 -10 33 -10
l27 -1 -27 -22 c-16 -13 -28 -27 -28 -31 0 -5 7 -3 15 4 8 6 20 10 27 7 8 -3
2 -10 -14 -17 -30 -14 -37 -30 -13 -30 8 0 15 -4 15 -10 0 -5 -5 -10 -10 -10
-6 0 -10 -6 -9 -12 1 -7 -3 -26 -9 -41 -16 -39 -56 -35 -60 6 -2 16 0 36 4 45
8 20 10 33 12 90 1 29 6 42 16 42 8 0 18 -4 21 -10z m1667 -67 c-61 -94 -105
-176 -134 -246 -46 -114 -134 -288 -168 -334 -33 -44 -67 -56 -88 -30 -12 14
7 47 26 47 7 0 14 11 18 25 3 13 19 34 34 47 17 13 26 28 22 37 -4 11 0 13 16
9 26 -7 28 4 5 39 -17 26 -17 26 5 14 18 -9 22 -9 22 2 0 8 7 20 15 27 11 9
12 15 5 20 -8 5 -1 24 19 59 17 28 31 55 31 59 0 4 13 21 30 39 16 17 46 62
67 100 36 67 94 145 102 138 2 -2 -11 -26 -27 -52z m394 14 c4 -17 9 -27 11
-20 3 9 9 10 23 1 17 -11 17 -13 2 -25 -16 -11 -16 -12 0 -13 9 0 22 -14 30
-30 7 -17 18 -28 25 -25 44 18 46 18 39 7 -4 -7 -14 -12 -22 -12 -8 0 -12 -5
-9 -10 4 -7 13 -7 26 0 21 12 26 1 7 -18 -16 -16 -2 -28 15 -14 8 7 17 9 20 5
12 -12 7 -22 -13 -28 -11 -3 -20 -11 -20 -17 0 -5 6 -8 14 -5 7 3 21 -4 30
-15 17 -19 16 -19 -3 -13 -16 5 -18 2 -14 -14 5 -20 -19 -55 -31 -44 -3 4 -6
-3 -6 -14 0 -16 5 -19 33 -15 17 2 37 9 44 14 8 7 13 -1 15 -29 2 -21 7 -36
13 -33 6 3 9 9 7 15 -2 5 5 2 15 -7 10 -10 20 -33 21 -53 3 -35 2 -36 -35 -34
-21 1 -45 -1 -53 -4 -11 -5 -24 12 -49 66 -73 157 -105 215 -158 285 -46 59
-53 75 -43 87 7 8 16 13 20 10 12 -8 33 23 24 36 -4 7 -3 9 4 5 6 -3 14 -21
18 -39z m-1155 -58 c-16 -35 -39 -89 -51 -119 -11 -30 -30 -66 -40 -80 -15
-19 -13 -7 11 50 45 110 100 222 105 217 3 -3 -8 -33 -25 -68z m679 37 c0 -2
-35 -32 -77 -67 -43 -35 -100 -85 -128 -111 -27 -25 -52 -45 -54 -42 -7 6 63
82 77 83 7 1 10 6 6 13 -4 6 -3 8 3 5 6 -4 13 -1 16 7 3 7 38 37 78 65 72 50
79 55 79 47z m-405 -56 c-13 -25 -45 -59 -45 -47 0 2 9 26 21 52 15 33 24 44
29 34 5 -7 3 -24 -5 -39z m915 -154 c27 -55 50 -105 50 -112 0 -7 4 -14 9 -16
5 -1 18 -23 29 -48 19 -41 19 -46 4 -52 -31 -12 -39 -8 -67 28 l-28 37 24 19
24 19 -32 -6 c-24 -5 -36 -1 -54 17 l-23 23 18 -29 c14 -22 15 -30 6 -36 -9
-5 -26 7 -49 35 -20 24 -42 44 -49 44 -7 1 -11 5 -7 10 3 5 -10 27 -29 47 -25
27 -32 41 -23 46 20 13 27 10 62 -29 19 -21 35 -35 35 -31 0 15 -72 88 -87 88
-12 0 -11 5 4 30 9 17 21 30 25 30 4 0 8 5 8 12 0 6 8 20 17 31 17 18 18 18
50 -20 18 -21 55 -83 83 -137z m-3670 145 c0 -4 20 -30 45 -57 25 -27 45 -49
45 -50 0 -1 -9 0 -20 3 -11 3 -20 12 -20 19 0 17 -12 18 -29 2 -10 -11 -11 -8
-6 15 10 40 -7 33 -34 -16 -13 -23 -39 -65 -57 -93 -40 -60 -41 -64 -14 -64
13 0 20 -7 20 -20 0 -14 -5 -18 -16 -13 -12 4 -15 0 -12 -17 5 -39 24 -33 56
17 32 49 93 115 100 108 2 -2 -16 -30 -41 -62 -24 -32 -56 -80 -70 -108 -14
-27 -32 -59 -40 -70 -14 -18 -16 -18 -22 -3 -4 10 1 24 14 37 17 17 19 25 11
41 -12 22 -36 27 -43 8 -2 -7 0 -21 5 -30 10 -20 -7 -24 -32 -8 -12 8 -11 13
9 34 13 13 21 30 19 38 -3 8 -12 1 -24 -17 -10 -17 -24 -36 -31 -43 -7 -7 -13
-17 -13 -22 0 -4 -13 -3 -30 3 -24 9 -28 15 -24 37 5 23 4 23 -7 5 -12 -19
-12 -19 -19 0 -4 11 -3 26 3 33 6 7 12 27 14 45 2 17 9 34 15 38 9 6 8 12 -2
26 -12 15 -12 16 0 6 17 -15 34 -17 25 -3 -3 6 -2 10 4 10 6 0 8 6 5 14 -3 7
2 16 11 20 9 3 13 10 10 16 -3 5 1 10 10 10 11 0 15 5 11 16 -3 8 -2 12 4 9 6
-3 10 -1 10 6 0 12 29 38 44 39 4 0 1 -11 -8 -25 -24 -36 -19 -52 5 -19 56 74
119 119 119 85z m1044 -122 c4 -20 20 -61 36 -90 27 -49 38 -89 25 -89 -3 0
-28 17 -56 38 -45 33 -50 40 -45 66 4 21 3 27 -7 23 -20 -7 -97 29 -97 46 0
19 50 63 85 74 26 9 32 7 41 -11 6 -12 14 -37 18 -57z m-1029 11 c3 -5 12 -7
20 -3 26 9 17 -27 -10 -39 -14 -6 -25 -17 -25 -24 0 -21 -19 -26 -35 -10 -8 8
-12 22 -8 31 6 16 7 16 15 1 8 -14 13 -15 24 -5 18 15 18 29 -1 29 -9 0 -12 6
-9 15 7 17 20 20 29 5z m2561 -25 c6 -20 8 -38 4 -40 -4 -3 -11 6 -14 20 -7
29 -35 33 -71 9 -14 -9 -25 -12 -25 -8 0 14 61 52 85 53 6 1 15 -15 21 -34z
m892 -36 c13 -19 31 -43 40 -55 27 -33 64 -105 58 -112 -8 -7 0 -16 -90 117
-50 74 -69 109 -54 99 13 -8 33 -30 46 -49z m-1323 -51 c-9 -40 -21 -78 -25
-83 -12 -14 -42 -100 -86 -240 -20 -66 -47 -138 -59 -160 -13 -22 -26 -58 -30
-79 -6 -36 -5 -38 9 -27 9 8 16 21 17 30 0 12 2 11 8 -4 11 -26 -1 -56 -43
-110 l-33 -44 -7 76 c-12 141 -10 151 24 158 41 9 58 38 91 154 15 53 38 128
52 166 53 145 92 243 96 239 2 -2 -4 -36 -14 -76z m672 56 c2 -5 -13 -18 -32
-28 -19 -11 -35 -25 -35 -33 0 -7 -9 -13 -20 -13 -11 0 -20 -6 -20 -13 0 -14
-57 -67 -72 -67 -5 0 -7 -4 -3 -9 3 -5 -5 -17 -17 -25 -12 -9 -20 -18 -17 -21
6 -5 189 132 236 178 18 17 35 28 38 25 5 -5 -172 -166 -350 -320 -29 -25 -51
-49 -47 -54 4 -4 1 -4 -6 0 -8 5 -21 1 -30 -7 -9 -8 -27 -18 -39 -21 -12 -4
-43 -27 -70 -52 -80 -75 -300 -231 -310 -220 -1 1 9 36 23 77 64 183 323 402
704 595 46 23 61 25 67 8z m-1806 -103 c67 -45 129 -101 129 -117 0 -8 -3 -14
-7 -14 -5 0 -25 -16 -45 -36 -35 -32 -43 -34 -39 -11 1 5 -3 6 -8 3 -5 -4 -12
-2 -16 4 -3 5 -21 17 -40 26 -19 9 -35 23 -35 31 0 8 -4 11 -10 8 -5 -3 -15 5
-22 19 -6 14 -14 26 -18 26 -4 0 -10 9 -13 21 -4 13 0 22 11 26 9 4 25 14 35
25 23 24 26 23 78 -11z m974 -31 c11 -5 14 -9 8 -9 -7 -1 -22 -10 -33 -21 -16
-16 -20 -17 -20 -4 0 11 -6 14 -20 9 -14 -4 -20 -2 -20 9 0 22 48 32 85 16z
m-1442 -104 c21 -32 47 -60 58 -63 12 -3 19 -14 19 -29 0 -25 15 -33 23 -11 3
6 6 1 7 -13 0 -22 2 -23 11 -7 13 22 31 23 22 1 -5 -14 0 -16 31 -12 36 4 37
4 30 -25 -5 -26 -4 -28 15 -22 12 3 21 2 21 -4 0 -5 -8 -11 -17 -14 -14 -3
-12 -6 10 -15 26 -11 38 -32 17 -32 -5 0 -10 4 -10 10 0 5 -7 7 -15 4 -14 -6
-13 -8 1 -19 9 -6 14 -16 11 -22 -4 -6 0 -19 8 -29 20 -26 18 -34 -7 -35 -21
-1 -21 -2 -3 -6 28 -7 36 -25 18 -39 -27 -19 -49 -5 -72 48 -12 28 -33 65 -46
82 -20 27 -46 72 -111 196 -11 19 -21 37 -25 40 -10 10 -49 77 -49 86 0 10 3
7 53 -70z m-847 -8 c-3 -18 -3 -26 1 -18 14 32 31 41 53 28 11 -7 20 -16 20
-21 0 -4 -17 -44 -39 -90 -21 -45 -41 -90 -44 -99 -5 -14 -18 -18 -56 -18 -55
0 -71 12 -48 38 8 9 18 32 22 50 4 18 10 30 14 28 4 -3 6 9 3 27 -3 26 -1 29
8 17 9 -12 10 -8 5 18 -4 20 -3 32 4 32 6 0 11 -8 12 -17 1 -19 0 -20 20 35
13 35 31 27 25 -10z m2134 7 c-10 -12 -10 -15 4 -15 9 0 16 -8 16 -20 0 -22
-15 -27 -23 -7 -3 6 -3 -10 0 -38 6 -49 23 -88 23 -50 0 10 3 15 7 11 12 -12
12 -37 -1 -42 -7 -3 -10 -18 -8 -39 4 -35 16 -46 25 -22 12 29 5 -52 -7 -88
l-14 -40 -7 40 c-3 22 -8 51 -11 65 -13 63 -22 140 -23 198 -1 51 2 62 15 62
14 0 14 -3 4 -15z m1985 -5 c18 -20 17 -20 -76 -19 -70 1 -84 3 -56 9 21 4 43
12 50 19 18 18 62 13 82 -9z m-2944 -136 c14 -16 29 -36 33 -44 13 -23 -65 59
-108 115 l-39 50 44 -46 c24 -25 56 -59 70 -75z m284 106 c7 0 15 -11 17 -25
6 -27 1 -30 -22 -15 -9 6 -17 5 -23 -3 -5 -7 -6 -3 -2 11 7 24 -6 29 -24 9 -8
-11 -6 -18 9 -32 11 -10 20 -13 20 -7 0 7 6 12 14 12 17 0 31 -35 21 -51 -4
-6 7 -4 23 5 43 22 63 17 107 -32 59 -66 93 -86 180 -103 l80 -16 3 -49 c1
-27 -1 -80 -5 -118 l-8 -69 -65 50 c-36 28 -137 122 -225 210 -88 87 -169 162
-179 166 -17 7 -16 10 10 36 16 15 35 27 42 25 8 -2 19 -4 27 -4z m-1143 -67
c62 -32 114 -61 116 -64 2 -4 12 -5 22 -2 11 3 20 0 20 -6 0 -6 9 -11 20 -11
11 0 20 -7 20 -15 0 -8 12 -21 28 -30 l27 -15 -30 6 c-35 8 -69 34 -45 35 8 0
4 4 -8 10 -13 5 -28 7 -32 4 -5 -3 -38 10 -74 30 -77 42 -194 115 -184 115 4
0 58 -26 120 -57z m-187 -43 c-24 -70 -45 -109 -45 -83 0 6 -12 16 -27 21 -28
10 -27 10 10 11 42 1 50 17 12 27 -20 5 -23 9 -14 20 6 8 23 14 37 14 24 0 24
1 8 19 -17 18 -17 20 4 41 37 37 42 10 15 -70z m3988 42 c4 -1 12 -2 17 -2 18
0 10 -28 -9 -35 -23 -7 -71 3 -71 15 0 5 8 11 18 13 10 3 6 5 -10 6 -16 0 -28
5 -28 10 0 7 38 4 83 -7z m-355 -39 c-5 -26 -49 -43 -131 -52 -110 -12 -110
-1 -1 35 116 38 137 41 132 17z m-1063 -83 c-93 -94 -319 -280 -340 -280 -25
0 59 81 166 160 19 14 59 48 89 76 54 50 137 114 149 114 3 0 -26 -32 -64 -70z
m1567 -28 c18 -47 34 -132 25 -132 -3 0 -15 33 -27 73 -11 39 -28 86 -36 104
-8 17 -14 35 -13 40 0 15 34 -40 51 -85z m-48 12 c10 -27 22 -58 27 -69 14
-36 39 -201 39 -257 0 -53 -1 -54 -27 -53 -17 2 -19 1 -6 -2 12 -2 24 -11 27
-19 4 -10 -3 -14 -24 -14 -33 0 -39 -14 -12 -29 15 -9 15 -10 -5 -11 -14 0
-23 6 -23 15 0 18 -16 20 -24 3 -3 -7 -5 5 -4 27 1 22 -1 45 -5 51 -3 6 -12
44 -18 84 -10 57 -10 75 -1 78 16 5 16 23 0 20 -7 -2 -18 26 -28 69 -9 40 -24
82 -32 95 -15 22 -15 24 31 45 25 12 51 21 56 19 6 -1 18 -25 29 -52z m86 -3
c0 -20 2 -23 10 -11 5 8 12 11 16 7 4 -3 1 -14 -6 -22 -10 -12 -10 -21 -1 -41
13 -30 14 -54 2 -54 -5 0 -12 17 -16 38 -4 20 -10 42 -15 47 -4 6 -11 28 -15
49 -6 36 -5 38 9 27 9 -8 16 -25 16 -40z m-3019 -44 c29 -34 98 -111 155 -170
101 -106 161 -187 150 -205 -3 -5 -15 -12 -26 -15 -23 -6 -58 37 -193 238 -38
55 -89 129 -115 165 -57 79 -40 71 29 -13z m257 -171 c56 -59 123 -135 149
-169 25 -34 62 -79 81 -99 20 -21 34 -40 31 -42 -8 -8 -163 148 -215 216 -53
69 -61 78 -178 212 -155 176 -109 136 132 -118z m2299 204 c-34 -15 -102 -48
-151 -73 -49 -26 -95 -47 -102 -47 -9 0 0 18 22 46 20 27 31 51 26 56 -4 4
-39 11 -76 15 -66 6 -67 7 -40 19 21 9 80 13 206 12 l177 -2 -62 -26z m-857
-83 c-15 -44 -32 -71 -58 -92 -40 -34 -185 -124 -191 -119 -2 2 5 14 15 27 64
82 114 141 177 211 61 67 72 76 75 57 2 -12 -6 -49 -18 -84z m-3136 66 c-4
-16 -10 -32 -14 -38 -5 -5 -11 -31 -15 -58 -4 -26 -11 -50 -16 -52 -4 -3 -11
-32 -15 -65 -4 -33 -11 -60 -15 -60 -5 0 -9 -7 -9 -15 0 -8 -10 -20 -22 -26
-23 -12 -23 -12 -4 10 11 11 16 21 12 21 -4 0 -2 9 4 19 6 13 6 21 0 23 -10 3
38 162 70 236 18 39 33 42 24 5z m40 12 c-4 -10 0 -15 10 -15 9 0 19 7 22 15
4 8 10 15 16 15 5 0 5 -6 0 -16 -5 -9 -7 -26 -4 -36 3 -15 10 -18 28 -14 17 5
24 2 24 -8 0 -21 -19 -30 -35 -16 -15 13 -15 13 -30 -35 -2 -8 0 -15 5 -15 6
0 10 7 10 15 0 8 7 15 15 15 19 0 19 -23 0 -60 -8 -16 -15 -33 -14 -37 4 -24
-3 -43 -16 -43 -20 0 -19 12 4 54 18 31 18 35 4 40 -9 4 -18 5 -20 2 -2 -2
-11 -40 -20 -85 l-16 -81 -39 0 c-21 0 -38 1 -38 3 0 14 23 127 30 147 4 14
18 58 31 98 12 39 26 72 31 72 4 0 5 -7 2 -15z m4171 -15 c7 0 17 -15 20 -32
4 -18 11 -35 15 -38 4 -3 11 -20 15 -37 5 -26 3 -33 -9 -33 -10 0 -19 16 -26
43 -6 23 -18 56 -26 74 -8 17 -14 35 -13 40 0 4 3 2 6 -4 2 -7 11 -13 18 -13z
m-3643 -30 c15 -22 35 -40 43 -40 8 0 15 -4 15 -9 0 -5 15 -12 34 -15 55 -10
78 -35 70 -74 -6 -28 -10 -31 -28 -26 -35 11 -92 51 -116 81 -18 22 -22 24
-18 8 4 -18 1 -20 -31 -17 -20 3 -39 9 -42 14 -6 10 32 118 41 118 3 -1 17
-19 32 -40z m1261 -120 c70 -50 157 -131 157 -144 0 -6 -5 -4 -10 4 -5 8 -10
11 -10 6 0 -5 -11 4 -25 20 -14 16 -25 25 -25 21 0 -9 -19 5 -66 51 -19 19
-34 29 -34 22 0 -6 -5 -8 -10 -5 -6 4 -7 11 -4 17 5 7 2 8 -5 4 -8 -5 -14 -1
-17 11 -3 11 -17 27 -32 36 -15 8 -49 39 -77 68 l-50 53 80 -65 c44 -35 102
-80 128 -99z m998 73 c-60 -75 -162 -210 -231 -303 -18 -25 -30 -36 -26 -25
14 41 89 162 127 205 124 141 184 207 188 204 2 -2 -25 -38 -58 -81z m1378
-40 c1 -17 -5 -23 -19 -23 -12 0 -20 7 -20 18 -1 9 -7 33 -14 53 -11 31 -11
38 3 46 13 9 19 3 33 -31 9 -22 17 -51 17 -63z m-3995 62 c-8 -43 -27 -95 -34
-94 -3 0 -14 4 -24 8 -18 7 -18 8 5 30 23 21 23 23 6 35 -16 13 -16 14 5 20
14 5 18 9 11 13 -22 8 -14 21 12 19 23 -1 25 -4 19 -31z m3680 -67 c3 -18 13
-55 21 -83 61 -213 75 -269 75 -296 0 -42 -23 -33 -30 12 -4 19 -19 57 -34 85
-24 45 -33 53 -80 67 -29 10 -61 18 -72 19 -10 1 6 4 36 8 51 6 53 7 30 17
-14 7 -18 12 -10 13 8 0 22 4 30 10 12 8 12 11 -1 27 -20 25 -18 49 6 67 25
18 17 27 -27 29 -20 1 -35 7 -35 15 0 6 2 10 5 8 2 -2 12 4 23 15 30 30 55 24
63 -13z m-2474 -8 c12 -7 11 -13 -10 -37 -14 -15 -28 -32 -31 -36 -6 -8 -6 5
0 71 1 14 20 16 41 2z m3053 -66 c4 -32 6 -79 5 -104 -3 -40 -5 -35 -16 40 -7
47 -16 96 -19 109 -4 17 -2 22 8 19 9 -3 17 -28 22 -64z m-1283 -18 c19 -36
39 -66 45 -66 6 0 67 20 136 44 142 49 228 71 144 35 -27 -11 -113 -43 -190
-70 -77 -27 -149 -53 -160 -58 -11 -5 -71 -30 -132 -56 -62 -26 -118 -54 -124
-61 -15 -19 -48 -18 -56 2 -3 9 6 27 23 45 37 38 22 59 -26 34 -17 -9 -34 -15
-36 -13 -8 9 325 240 336 233 3 -2 21 -33 40 -69z m-2760 56 c0 -4 18 -18 40
-32 38 -24 58 -66 25 -54 -8 4 -15 2 -15 -4 0 -5 7 -13 16 -16 8 -3 13 -9 10
-14 -2 -4 12 -7 32 -6 20 2 27 0 15 -2 -15 -4 -23 -13 -23 -26 0 -20 -1 -20
-18 -5 -18 17 -50 8 -38 -11 3 -6 -4 -13 -16 -15 -20 -4 -19 -4 5 -6 31 -1 32
-4 12 -28 -8 -10 -21 -27 -29 -38 -12 -17 -16 -17 -30 -6 -13 11 -20 11 -28 3
-9 -9 -7 -12 8 -12 19 -1 19 -1 0 -15 -24 -18 -50 -20 -40 -4 4 7 8 21 8 33 1
12 8 49 15 83 l13 62 23 -17 c13 -9 21 -21 18 -26 -3 -5 0 -7 8 -4 27 9 21 35
-11 48 -20 8 -29 18 -26 27 4 8 6 32 6 54 0 21 5 39 10 39 6 0 10 -3 10 -8z
m-250 -7 c0 -10 -32 -130 -40 -150 -5 -11 -11 -37 -15 -57 -5 -34 -9 -37 -43
-40 -33 -3 -37 -6 -40 -33 -6 -48 -22 -54 -22 -8 0 69 10 103 31 103 16 0 18
-5 13 -25 -5 -21 -3 -25 16 -25 19 0 21 4 15 30 -5 23 -3 30 9 30 19 0 21 16
4 26 -7 5 -5 11 8 21 15 11 16 15 5 22 -16 10 -6 31 15 31 8 0 14 5 14 10 0 6
-7 10 -15 10 -8 0 -15 7 -15 15 0 8 5 15 11 15 6 0 9 7 5 15 -4 11 1 15 19 15
14 0 25 -2 25 -5z m3555 -5 c4 -6 10 -8 15 -5 5 3 7 -11 5 -31 -3 -38 -17 -54
-50 -54 -14 0 -20 7 -21 25 -1 14 2 22 7 19 5 -3 9 -1 9 5 0 6 6 8 14 5 7 -3
16 2 20 12 4 12 2 15 -9 10 -9 -3 -15 0 -15 9 0 17 16 20 25 5z m495 -8 c0
-10 -5 -23 -12 -30 -9 -9 -8 -12 6 -12 15 0 17 -5 13 -29 -4 -20 -2 -31 8 -35
8 -3 15 -13 15 -21 0 -12 -8 -15 -27 -13 -26 3 -28 7 -34 59 -3 31 -9 61 -13
68 -10 16 2 31 25 31 12 0 19 -7 19 -18z m45 8 c10 -17 42 -240 34 -240 -9 0
-15 21 -24 85 -4 28 -10 57 -15 65 -23 45 -18 128 5 90z m-2952 -146 c-21 -48
-44 -89 -51 -92 -9 -3 -10 3 -2 23 18 48 62 140 72 153 24 29 17 -2 -19 -84z
m-1233 67 c0 -6 -4 -13 -10 -16 -5 -3 -10 -19 -10 -35 0 -24 -3 -27 -21 -23
-14 4 -17 9 -10 16 6 6 11 21 11 32 0 12 3 25 7 28 10 10 33 8 33 -2z m2109
-101 c2 -45 7 -53 58 -79 105 -53 159 -136 150 -229 -9 -90 -12 -106 -38 -157
-26 -52 -62 -84 -123 -109 -73 -30 -135 -18 -212 40 -34 27 -63 30 -83 12 -11
-11 -11 -9 -1 10 7 14 17 21 26 18 15 -6 19 5 7 18 -17 16 -33 86 -33 144 0
112 53 195 161 251 l54 28 9 69 c7 54 11 64 17 44 4 -14 8 -41 8 -60z m-687 0
c32 -12 44 -19 30 -20 -26 0 -172 68 -172 80 0 5 20 -3 44 -16 25 -14 69 -34
98 -44z m1918 32 c10 -7 -27 -22 -53 -22 -28 0 -28 0 -10 24 17 23 25 23 63
-2z m-3413 -14 c-3 -13 -9 -41 -13 -63 -4 -22 -12 -43 -18 -47 -6 -4 -11 -13
-11 -20 0 -7 -12 -14 -27 -16 -28 -3 -28 -3 -28 60 0 73 4 81 45 96 48 17 58
15 52 -10z m-110 -71 c-6 -69 -15 -97 -28 -97 -12 0 -11 48 2 110 16 73 33 65
26 -13z m4358 43 c-3 -5 -1 -11 5 -15 20 -12 10 -35 -15 -35 -14 0 -25 -5 -25
-11 0 -24 -16 2 -18 30 -2 25 3 33 20 40 25 9 42 5 33 -9z m-4478 -126 c-10
-10 -37 10 -46 34 -5 15 -10 20 -10 11 -1 -19 -31 -48 -31 -30 0 15 -51 9 -57
-7 -4 -9 -9 -10 -19 -2 -17 15 -7 40 16 40 11 0 22 5 25 10 11 18 35 11 29 -7
-5 -16 -4 -16 10 1 8 10 27 19 41 19 15 0 30 7 33 16 4 9 8 -4 10 -33 2 -26 1
-50 -1 -52z m4109 40 c13 -16 19 -34 16 -46 -4 -17 -7 -15 -20 13 -13 29 -16
31 -19 13 -4 -20 -5 -20 -69 -4 -99 25 -108 44 -24 53 59 7 94 -2 116 -29z
m-2241 7 c-11 -5 -47 -11 -80 -15 -260 -26 -361 -37 -505 -51 -91 -9 -222 -23
-292 -31 -137 -15 -201 -17 -128 -3 120 22 555 69 790 84 52 4 111 10 130 15
48 11 112 12 85 1z m2626 -7 c11 -14 10 -18 -5 -30 -10 -7 -24 -15 -30 -17 -8
-3 -7 -12 2 -31 11 -25 10 -27 -5 -24 -26 5 -30 88 -6 106 22 16 28 15 44 -4z
m129 -86 c19 -8 40 -13 46 -11 6 2 17 -4 25 -13 13 -16 10 -17 -44 -11 -68 7
-87 19 -87 56 1 23 2 24 13 10 7 -10 28 -23 47 -31z m-1724 21 c4 -7 10 -7 16
-1 15 15 299 -2 533 -33 61 -7 164 -19 230 -25 340 -33 340 -35 -1 -43 -377
-10 -834 3 -834 23 0 4 8 7 18 6 14 -1 17 7 16 42 0 41 8 53 22 31z m-951 -25
c9 -14 13 -30 8 -34 -20 -21 -184 -27 -913 -34 -278 -3 -398 -1 -320 4 198 12
300 21 371 30 198 27 551 55 740 58 94 2 97 1 114 -24z m3071 -13 c49 -16 98
-32 109 -34 19 -5 19 -5 -1 -6 -20 -1 -153 36 -204 57 -53 22 11 11 96 -17z
m-4016 -137 c96 -3 235 -6 309 -5 148 1 503 -16 566 -27 35 -6 42 -12 53 -46
6 -21 10 -41 7 -45 -10 -18 -102 -13 -412 21 -60 6 -132 11 -160 9 -29 -1 -53
2 -53 7 0 5 -39 12 -87 16 -49 4 -176 13 -283 21 -107 8 -217 19 -245 23 -45
8 -47 9 -22 15 62 16 76 17 83 6 5 -8 10 -6 16 5 6 10 17 14 31 12 12 -3 101
-8 197 -12z m2515 -70 c-16 -2 -79 -11 -140 -19 -236 -32 -355 -45 -402 -44
l-48 2 55 7 c48 7 175 23 390 49 36 5 90 8 120 8 30 0 42 -2 25 -3z m1210 -22
c-6 -5 -35 -14 -65 -22 -30 -7 -65 -20 -77 -28 -15 -9 -23 -10 -23 -3 0 12 40
32 78 38 12 2 32 8 45 13 28 11 54 13 42 2z m-195 -33 c0 -25 -6 -33 -30 -42
-21 -8 -30 -18 -30 -34 0 -19 5 -23 30 -23 40 0 39 -18 -2 -22 -17 -2 -34 -9
-36 -17 -4 -11 3 -13 32 -8 35 6 36 5 36 -26 0 -18 -6 -48 -13 -68 -11 -32
-15 -35 -36 -28 -26 10 -41 4 -41 -17 0 -9 10 -14 29 -14 l28 0 -17 -73 c-20
-83 -68 -244 -81 -269 -8 -15 -13 -16 -56 -3 -62 19 -68 26 -50 66 8 19 25 65
37 102 19 59 24 66 34 51 9 -12 15 -14 20 -6 9 15 -1 32 -20 32 -8 0 -14 5
-14 11 0 6 6 9 14 6 20 -8 29 34 20 99 -4 35 -3 54 4 54 6 0 13 -12 15 -27 2
-16 3 4 1 42 -2 53 -1 61 5 35 9 -39 11 -33 17 60 10 148 6 135 42 138 18 2
32 -1 32 -7 0 -6 -9 -11 -20 -11 -11 0 -20 -6 -20 -14 0 -10 10 -14 31 -14 24
1 30 5 28 22 -2 27 0 36 6 36 3 0 5 -14 5 -31z m-330 -61 c-1 -52 -21 -165
-33 -185 -12 -20 -93 -36 -116 -24 -11 7 -21 13 -21 14 0 1 21 3 46 3 51 2 78
19 54 34 -22 14 -42 12 -85 -10 -22 -11 -57 -20 -80 -19 l-40 1 35 9 c19 4 40
7 45 5 6 -2 16 3 23 10 11 12 10 15 -3 20 -8 3 -26 3 -40 0 -14 -4 -25 -2 -25
4 0 5 14 10 30 10 18 0 30 5 30 13 0 18 -21 37 -40 37 -19 0 -57 26 -50 34 3
3 26 -2 51 -11 43 -16 47 -16 72 3 33 23 34 37 5 57 -22 15 -22 16 -3 17 11 0
30 3 42 6 l23 6 -16 -46 c-28 -82 6 -72 46 14 31 67 50 66 50 -2z m-4028 15
c12 -4 19 -26 28 -91 7 -48 21 -125 32 -172 11 -47 21 -92 22 -100 4 -27 27
-105 42 -137 8 -17 14 -38 14 -47 0 -17 16 -22 22 -6 2 5 3 -13 4 -40 0 -28 6
-56 12 -62 7 -7 12 -17 12 -24 0 -18 -32 -26 -46 -12 -20 20 -70 128 -87 188
-48 166 -77 293 -77 333 0 15 -4 27 -9 27 -6 0 -10 22 -9 49 0 27 -3 64 -7 82
-6 29 -5 31 11 24 11 -4 26 -9 36 -12z m2948 -9 c35 -23 51 -44 34 -44 -11 0
-49 23 -77 46 -40 34 -8 31 43 -2z m-2464 -42 c-2 -14 -12 -29 -22 -33 -17 -6
-17 -8 6 -17 25 -11 24 -11 -7 -11 -38 -1 -46 -21 -8 -21 18 0 23 -4 19 -15
-4 -10 0 -15 12 -16 17 -1 17 -2 2 -6 -10 -2 -18 -9 -18 -15 0 -11 -29 -37
-41 -38 -4 0 -10 7 -13 16 -10 27 -36 196 -31 204 3 5 27 1 54 -8 43 -13 49
-18 47 -40z m2336 -14 c162 -90 178 -98 205 -98 22 0 24 -2 12 -16 -11 -13 -8
-19 17 -40 37 -32 13 -20 -50 25 -50 36 -224 141 -233 141 -3 0 -16 9 -30 20
-41 32 -19 23 79 -32z m698 41 c0 -25 -36 -117 -58 -149 -13 -19 -22 -27 -18
-17 5 14 2 17 -13 12 -10 -3 -28 -2 -40 3 -21 7 -21 9 -6 22 14 12 18 12 25
-1 8 -11 15 -7 39 21 38 44 45 64 32 89 -15 28 -14 31 14 31 14 0 25 -5 25
-11z m-3356 -51 c3 -24 7 -59 10 -78 10 -83 38 -213 55 -253 25 -58 93 -278
88 -283 -2 -2 -12 13 -23 33 -10 21 -20 40 -21 42 -2 2 -11 -3 -21 -12 -20
-18 -32 -13 -32 12 0 9 -5 23 -10 31 -9 13 -11 13 -20 0 -9 -13 -10 -13 -10 1
0 8 6 21 12 27 10 10 10 17 0 32 -6 11 -12 28 -12 39 0 26 -29 49 -39 32 -7
-10 -9 -10 -14 2 -6 17 35 43 52 33 6 -4 11 -16 11 -27 0 -11 7 -27 15 -35 18
-18 19 -14 4 23 -10 25 -45 198 -52 264 -2 14 -7 31 -12 38 -4 8 -2 17 6 22
11 6 9 12 -6 29 -16 17 -17 23 -6 30 8 4 11 15 8 24 -4 9 -2 16 3 16 5 0 11
-19 14 -42z m4304 26 c19 -6 22 -12 18 -43 -3 -20 -5 -36 -6 -36 -1 0 -4 -20
-6 -45 -3 -25 -10 -49 -15 -54 -5 -6 -9 -18 -9 -27 0 -23 -17 -28 -61 -16 -36
9 -36 9 -27 45 5 21 15 62 21 92 9 42 17 56 32 58 41 8 41 25 0 19 -27 -5 -35
-3 -25 3 17 11 45 12 78 4z m-3098 -8 c0 -6 -159 -66 -173 -66 -7 1 24 16 68
35 75 32 105 41 105 31z m250 -32 c0 -4 -22 -32 -49 -63 -111 -129 -139 -184
-107 -210 12 -10 15 -7 18 16 2 18 9 28 19 27 9 -1 16 6 15 14 0 9 8 18 19 20
15 2 17 1 6 -6 -10 -7 -10 -11 -1 -17 7 -4 16 -2 21 6 4 7 10 11 14 8 3 -3 -8
-23 -25 -44 -16 -21 -30 -41 -30 -44 0 -4 -38 -46 -85 -94 -47 -48 -85 -92
-85 -98 0 -13 29 7 43 29 4 6 13 12 20 12 7 0 -43 -55 -109 -123 -67 -67 -145
-147 -174 -177 -40 -43 -48 -49 -37 -25 9 17 18 48 22 69 14 73 108 225 248
401 31 38 64 85 74 105 16 32 47 70 135 168 27 29 48 41 48 26z m1505 -30 c39
-15 51 -23 35 -23 -38 1 -123 32 -128 48 -4 11 0 12 14 6 11 -4 46 -18 79 -31z
m-3267 -36 c-2 -17 -13 -24 -43 -31 -22 -4 -50 -6 -62 -4 -13 2 -23 -1 -23 -7
0 -8 22 -10 69 -8 l68 4 7 -33 c4 -19 9 -46 12 -61 7 -29 12 -27 -90 -48 -27
-6 -50 -9 -51 -8 -6 10 -28 139 -27 166 0 18 -3 30 -8 27 -4 -3 -10 2 -14 10
-4 13 8 15 80 15 82 0 85 -1 82 -22z m2142 -2 c0 -14 4 -27 9 -31 6 -3 8 -13
7 -23 -2 -9 -7 -39 -10 -65 -5 -31 -13 -51 -24 -55 -9 -4 -73 -40 -142 -80
-69 -40 -138 -80 -155 -89 -16 -9 -55 -32 -85 -52 -54 -35 -120 -71 -129 -71
-6 0 420 414 468 454 51 42 61 44 61 12z m-1903 -48 c4 11 33 18 33 8 0 -2 3
-11 6 -20 5 -13 -1 -16 -30 -16 -31 0 -36 3 -36 23 0 18 2 19 11 7 8 -11 12
-12 16 -2z m2398 -109 c6 -31 3 -28 -31 26 -21 33 -42 62 -46 63 -4 2 -8 9 -8
15 0 24 78 -72 85 -104z m-1454 59 c12 -24 37 -62 55 -85 l34 -42 -27 -19
c-36 -25 -165 -92 -223 -117 -110 -45 -193 -86 -247 -121 -32 -21 -63 -37 -70
-36 -7 2 -55 -15 -107 -38 -91 -38 -136 -49 -136 -32 0 4 26 13 57 21 76 17
152 56 181 92 25 30 48 37 54 17 6 -17 76 21 171 90 88 66 89 66 52 51 -41
-16 -115 -22 -115 -9 0 5 4 10 10 10 13 0 123 110 116 117 -14 14 135 143 166
143 4 0 17 -19 29 -42z m1871 22 c20 0 40 -14 75 -51 54 -58 137 -170 156
-212 8 -15 16 -24 20 -20 7 7 9 -1 11 -57 1 -21 6 -35 14 -35 6 0 12 -4 11
-10 -1 -5 -5 -9 -10 -7 -5 1 -9 -4 -9 -12 0 -16 26 -46 41 -46 5 0 9 -6 9 -13
0 -18 28 -75 41 -82 15 -10 10 -35 -8 -35 -9 0 -14 2 -11 5 3 3 -17 27 -43 53
-27 26 -49 53 -49 60 0 6 -3 12 -7 12 -5 0 -19 17 -33 37 -14 21 -70 98 -125
173 -56 74 -110 151 -122 171 -11 20 -28 48 -38 62 l-17 26 34 -9 c18 -6 45
-10 60 -10z m-842 -10 c0 -11 4 -20 8 -20 5 0 7 -13 4 -28 -2 -18 2 -35 12
-45 9 -8 16 -31 16 -49 0 -18 6 -73 14 -123 8 -49 15 -135 15 -190 1 -101 16
-523 25 -690 l5 -90 -23 125 c-81 434 -93 522 -106 805 -9 176 -8 242 1 278
12 48 29 64 29 27z m380 -142 c0 -4 -7 -5 -15 -2 -8 4 -15 3 -15 0 0 -4 -6
-39 -14 -79 -8 -40 -18 -106 -22 -147 -7 -81 -8 -89 -23 -165 -22 -113 -28
-156 -20 -160 4 -3 9 5 11 17 3 20 4 20 17 -5 12 -23 13 -38 2 -95 -13 -68
-39 -184 -67 -302 -31 -129 -34 -146 -44 -240 -5 -52 -16 -142 -25 -200 -8
-58 -15 -108 -15 -112 0 -5 -5 -8 -11 -8 -17 0 -4 346 16 435 8 39 20 99 26
135 5 36 14 85 19 110 5 25 12 71 16 103 4 33 12 61 19 63 7 3 11 13 8 24 -3
10 2 69 11 131 9 63 20 157 26 209 6 52 15 129 21 170 16 111 20 141 23 180 2
19 4 46 5 60 2 18 10 5 27 -44 13 -39 24 -73 24 -78z m-2304 109 c14 -32 7
-47 -24 -47 -20 0 -23 3 -14 12 17 17 15 31 -3 24 -10 -3 -15 1 -15 12 0 27
43 26 56 -1z m3284 19 c0 -2 -7 -17 -15 -32 -8 -16 -15 -39 -15 -50 0 -12 -7
-27 -15 -34 -12 -10 -15 -9 -15 8 0 11 7 36 15 55 19 45 19 51 -1 43 -8 -3
-12 -2 -9 4 6 9 55 15 55 6z m412 -48 c-4 -16 -10 -19 -35 -14 -16 3 -47 6
-68 6 -22 0 -39 5 -39 10 0 6 24 10 54 10 30 0 57 4 61 10 10 17 33 0 27 -22z
m-3149 -38 c30 -66 33 -80 16 -80 -6 0 -25 -11 -42 -24 -18 -13 -48 -31 -67
-39 -19 -8 -49 -27 -66 -43 -34 -31 -120 -72 -107 -51 20 32 68 76 87 80 17 3
15 5 -6 6 -25 1 -42 21 -19 21 5 0 7 9 4 20 -4 14 0 20 11 20 9 0 16 6 16 13
0 15 47 38 64 31 7 -3 18 7 24 21 7 15 8 24 2 20 -6 -4 -10 7 -10 25 0 27 3
30 21 25 15 -5 19 -4 15 4 -4 6 0 11 11 11 12 0 27 -20 46 -60z m1944 13 c126
-86 178 -127 264 -207 47 -45 132 -120 190 -168 111 -93 285 -265 276 -274 -3
-3 -25 7 -49 22 -23 15 -101 58 -171 95 -217 116 -378 232 -560 406 -54 52
-67 70 -63 87 3 11 6 36 6 54 0 45 24 42 107 -15z m1787 17 c22 0 23 -2 13
-39 -6 -22 -14 -38 -18 -36 -3 3 -9 -17 -13 -43 -7 -50 -55 -185 -68 -190 -5
-2 -8 -12 -8 -23 0 -21 -8 -23 -29 -10 -22 14 10 117 39 124 10 3 7 7 -10 14
-23 10 -25 8 -31 -21 -8 -45 -29 -96 -41 -96 -13 0 -3 43 34 143 16 45 34 102
39 127 14 70 15 71 44 60 15 -6 37 -10 49 -10z m-4520 -72 c32 -62 19 -82 -61
-92 -57 -7 -61 -4 -73 50 -9 40 -6 42 64 59 28 7 52 13 53 14 1 1 9 -13 17
-31z m1350 -21 c11 -8 15 -19 10 -30 -8 -22 -27 -22 -48 2 -30 33 1 55 38 28z
m2646 -57 c14 -11 30 -20 36 -20 14 0 39 -29 31 -36 -6 -7 -77 37 -96 60 -18
22 -2 20 29 -4z m-2810 -48 c0 -5 -19 -14 -42 -21 -23 -7 -53 -20 -67 -29
l-26 -15 26 27 c15 16 42 32 60 36 47 11 49 11 49 2z m2700 -36 c0 -8 -4 -17
-9 -20 -5 -3 -12 -21 -15 -41 -4 -19 -11 -37 -16 -40 -13 -8 -43 22 -37 38 2
6 0 23 -5 35 -12 33 -3 42 43 42 27 0 39 -4 39 -14z m-2036 -41 c33 -25 55
-45 50 -45 -16 0 -124 71 -124 81 0 16 14 9 74 -36z m-297 -2 c-23 -37 -188
-185 -196 -177 -3 2 15 21 40 41 24 20 73 67 109 104 36 37 66 68 68 68 1 1
-8 -16 -21 -36z m191 -11 c13 -13 18 -29 14 -50 -2 -19 0 -32 6 -32 24 0 6
-39 -25 -54 -40 -19 -44 -39 -5 -31 l27 6 -25 -14 c-14 -9 -37 -13 -56 -10
-21 3 -45 -2 -75 -18 l-44 -24 30 -3 c17 -2 35 -8 40 -14 7 -7 3 -8 -14 -3
-44 13 -88 7 -129 -19 -22 -14 -52 -28 -66 -32 -14 -3 -26 -10 -26 -15 0 -5
-6 -9 -12 -9 -7 0 -26 -7 -42 -15 -16 -9 -31 -13 -34 -11 -2 3 17 15 42 27 29
13 45 27 42 35 -3 8 3 12 21 11 20 -2 26 3 28 20 1 18 88 113 103 113 10 0 30
28 24 34 -3 4 3 9 13 12 11 3 27 20 36 37 8 17 33 41 55 53 49 28 50 28 72 6z
m939 -36 c-6 -17 10 -53 71 -161 54 -96 65 -110 77 -103 6 3 104 -190 105
-206 0 -15 -33 33 -106 152 -104 170 -194 335 -194 356 0 18 2 18 25 -4 14
-13 24 -29 22 -34z m1566 -23 c-3 -7 2 -13 11 -13 18 0 21 -21 5 -37 -8 -8
-23 -3 -54 18 -50 34 -51 34 -59 13 -3 -8 -2 -12 4 -9 5 3 19 -3 32 -14 13
-11 32 -26 42 -34 19 -14 18 -15 -11 -58 -24 -36 -34 -43 -56 -41 -25 3 -26 1
-16 -22 10 -22 8 -30 -17 -63 -16 -20 -45 -61 -64 -89 -34 -50 -95 -124 -103
-124 -3 0 -17 18 -32 40 l-28 40 37 42 c44 51 39 44 101 136 69 102 82 123 90
152 5 19 4 21 -4 10 -24 -33 -9 5 20 54 l32 53 37 -21 c22 -12 36 -26 33 -33z
m136 -30 c20 -17 20 -20 6 -47 -11 -20 -12 -33 -5 -40 5 -5 10 -14 10 -19 0
-5 -7 -1 -15 7 -9 9 -26 22 -37 31 -19 13 -20 17 -9 39 8 13 10 29 7 35 -11
17 20 13 43 -6z m-74 -20 c-3 -16 -13 -32 -21 -36 -8 -4 -14 -15 -14 -23 0
-12 4 -12 20 -4 21 11 60 -5 60 -26 0 -22 -52 -153 -77 -193 -1 -1 -6 0 -12 3
-11 7 13 70 37 94 6 7 12 19 12 25 0 6 -11 0 -24 -13 -13 -14 -23 -29 -22 -34
0 -6 -7 -12 -16 -14 -11 -2 -18 2 -18 10 0 20 -20 37 -36 31 -8 -3 -14 -16
-14 -29 0 -18 5 -24 23 -24 20 0 23 -4 19 -30 -2 -16 -8 -30 -12 -30 -4 0 -6
12 -3 28 3 25 3 26 -6 5 -13 -28 -26 -29 -53 -3 l-21 19 59 86 c54 79 68 100
102 163 17 30 26 28 17 -5z m-3983 -60 c15 -15 28 -30 28 -34 0 -3 -14 -12
-31 -19 -26 -11 -33 -11 -41 1 -8 11 -9 11 -5 -3 6 -16 -21 -48 -40 -48 -14 0
-36 112 -24 119 5 3 26 7 47 9 29 2 44 -4 66 -25z m3087 20 c-2 -14 13 -53 20
-53 4 0 15 -16 26 -36 16 -30 17 -37 4 -45 -10 -8 -8 -9 9 -4 12 4 21 3 20 -2
-2 -4 5 -19 15 -33 37 -52 107 -161 107 -167 0 -4 6 -14 14 -22 15 -18 31 -75
19 -68 -96 53 -206 124 -229 148 -23 24 -25 29 -9 23 11 -4 22 -11 25 -14 3
-4 17 -13 32 -21 15 -8 55 -31 89 -53 33 -21 62 -36 65 -34 2 3 -10 20 -26 38
-27 31 -34 43 -32 62 1 3 -5 12 -13 18 -8 7 -15 18 -15 26 0 7 -20 32 -45 55
-25 23 -45 47 -45 54 0 6 -9 28 -20 49 -22 44 -30 86 -15 86 3 0 5 -3 4 -7z
m-2869 -150 c0 -26 -16 -11 -38 35 -31 66 -28 75 8 22 16 -25 30 -51 30 -57z
m-141 12 c8 -17 17 -32 21 -35 4 -3 16 -21 26 -40 34 -62 57 -94 115 -160 l57
-66 -27 -32 -26 -33 -34 35 c-37 38 -57 42 -22 5 12 -13 21 -27 21 -33 0 -5
-6 -1 -14 10 -8 10 -17 16 -21 12 -10 -9 27 -57 45 -58 12 0 12 -2 1 -12 -11
-11 -14 -10 -18 0 -3 7 -10 18 -16 25 -16 17 -98 118 -120 148 -9 13 -40 56
-67 94 -27 39 -54 75 -60 82 -14 17 -13 20 9 26 14 3 25 -7 47 -44 16 -27 32
-49 37 -49 4 0 -4 18 -18 40 -25 40 -31 60 -17 60 4 0 15 -19 26 -41 10 -22
20 -38 23 -36 2 3 -5 26 -16 51 -18 38 -19 49 -9 66 17 27 40 21 57 -15z m77
10 c-3 -9 0 -15 9 -15 8 0 15 -7 15 -15 0 -8 -9 -15 -20 -15 -22 0 -25 -7 -11
-29 8 -12 12 -11 27 3 11 12 19 14 24 6 7 -12 40 -3 40 11 0 5 5 9 10 9 6 0
10 -6 10 -12 0 -17 -63 -53 -68 -39 -5 16 -22 13 -22 -3 0 -20 37 -62 46 -53
5 4 2 12 -6 17 -13 8 -13 10 -1 10 19 0 61 -40 61 -58 0 -11 -3 -12 -13 -3 -8
6 -17 8 -20 5 -9 -9 66 -75 81 -69 14 5 15 -4 4 -23 -10 -15 -92 63 -138 130
-16 24 -33 46 -38 50 -6 4 -10 23 -9 42 1 27 -4 37 -18 41 -26 9 -14 25 18 25
18 0 24 -4 19 -15z m3190 -19 c8 -14 22 -51 30 -83 8 -32 18 -65 21 -73 3 -8
7 -17 8 -20 8 -24 21 -47 32 -58 7 -7 13 -18 13 -25 0 -6 -15 9 -32 33 -18 25
-32 48 -31 52 2 4 -8 15 -22 24 -14 9 -25 26 -25 38 0 11 -14 34 -31 51 -28
27 -29 30 -13 42 10 7 14 16 9 20 -4 5 -10 2 -12 -4 -6 -16 -23 -17 -23 -3 0
9 33 28 52 29 4 1 15 -10 24 -23z m-1921 -106 c-16 -18 -16 -60 0 -72 10 -7 8
-8 -27 -12 -7 0 -17 -11 -23 -23 -5 -13 -16 -23 -23 -23 -8 0 -12 -6 -9 -14 4
-10 1 -13 -8 -10 -8 3 -12 -1 -12 -13 1 -10 -4 -17 -11 -15 -8 1 -11 -2 -8 -7
5 -8 -70 -101 -103 -127 -9 -7 -11 -16 -6 -25 6 -11 5 -11 -5 -2 -16 15 -9 26
70 120 5 7 10 15 10 18 0 7 119 216 132 233 8 9 14 9 25 1 11 -10 11 -14 -2
-29z m2380 6 c8 -7 13 -15 11 -17 -2 -2 10 -16 25 -31 l29 -27 15 21 c8 12 16
20 17 17 32 -50 35 -70 7 -38 l-20 24 7 -24 c4 -18 3 -22 -7 -16 -9 6 -11 4
-6 -8 4 -11 2 -14 -9 -10 -10 4 -13 0 -8 -13 5 -16 4 -16 -5 -4 -6 8 -8 22 -6
31 3 9 -3 23 -13 33 -17 15 -20 15 -32 1 -10 -12 -10 -18 0 -30 10 -12 9 -15
-4 -15 -9 0 -19 -7 -22 -15 -4 -8 -12 -15 -20 -15 -8 0 -14 -6 -14 -12 0 -7
-15 -28 -32 -47 -29 -33 -32 -33 -44 -16 -12 16 -11 21 4 38 16 19 16 19 -5
13 -29 -9 -29 5 -2 30 12 10 42 47 67 81 25 35 48 63 50 63 2 0 10 -6 17 -14z
m-2255 -30 c0 -19 -50 -77 -60 -71 -5 3 -11 -4 -15 -15 -3 -11 -12 -20 -18
-21 -7 0 -20 -2 -29 -4 -10 -2 -18 1 -18 6 0 15 100 110 110 104 5 -3 11 -1
15 5 9 14 15 12 15 -4z m58 -66 c1 -17 -4 -43 -12 -58 -10 -18 -15 -21 -16
-10 0 9 -3 24 -7 34 -4 12 -3 15 5 10 7 -4 12 -2 12 4 0 7 -8 9 -20 5 -26 -8
-25 -1 2 30 25 29 33 26 36 -15z m1560 -57 c70 -32 209 -125 280 -187 30 -25
51 -46 48 -46 -4 0 -37 22 -74 49 -88 64 -184 122 -301 182 -61 32 -84 47 -64
44 29 -6 32 -4 27 12 -5 13 -2 12 10 -4 10 -13 43 -35 74 -50z m-448 -68 c18
-19 30 -38 26 -42 -3 -4 -26 12 -49 35 -26 26 -36 42 -26 42 8 0 30 -16 49
-35z m-300 -46 c0 -5 6 -9 13 -9 17 0 73 -58 64 -66 -3 -3 -25 12 -48 35 -24
23 -49 41 -57 41 -7 0 -11 4 -7 10 7 11 35 2 35 -11z m106 -4 c9 -8 12 -20 9
-25 -4 -6 1 -23 10 -38 14 -23 12 -23 -15 6 -17 18 -28 37 -25 42 4 6 1 10 -5
10 -6 0 -8 5 -5 10 8 13 14 13 31 -5z m-1126 -96 c-12 -22 -15 -23 -41 -9 -23
13 -25 52 -3 86 l17 25 18 -41 c14 -31 16 -47 9 -61z m820 80 c0 -4 3 -14 6
-22 3 -10 -3 -17 -19 -21 -14 -3 -32 -9 -41 -12 -17 -6 -22 19 -10 49 6 16 64
21 64 6z m-933 -41 c-3 -18 -9 -42 -13 -52 -5 -14 -4 -17 4 -12 9 5 12 -6 12
-38 0 -44 -7 -55 -24 -38 -7 7 -11 8 -37 11 -6 0 -8 10 -4 22 7 22 7 22 -12 3
-11 -10 -41 -50 -68 -89 -60 -88 -67 -97 -72 -91 -5 5 42 79 137 216 80 116
86 121 77 68z m308 -194 l-17 -101 -70 29 c-39 15 -80 28 -92 29 -13 0 4 12
44 30 36 17 71 38 78 47 11 14 12 14 12 -5 0 -11 8 -27 17 -34 15 -13 16 -12
8 6 -5 11 -10 45 -10 75 0 30 -6 68 -13 84 -17 40 -10 54 15 29 l22 -22 8 32
c17 66 15 -96 -2 -199z m744 108 c15 -29 21 -57 19 -84 l-3 -40 -23 19 c-29
23 -38 64 -33 146 3 51 5 57 11 32 4 -16 18 -49 29 -73z m-821 -5 c2 -11 -6
-19 -22 -23 -14 -3 -26 -10 -26 -14 0 -12 -39 -19 -46 -9 -3 5 1 9 8 9 8 0 25
13 38 30 27 31 43 34 48 7z m182 -22 c0 -8 -4 -15 -10 -15 -5 0 -9 -4 -7 -9 1
-5 -7 -16 -18 -24 -31 -24 -9 -32 30 -12 32 18 53 17 42 -2 -3 -5 -34 -31 -68
-58 -55 -43 -61 -46 -55 -24 5 13 11 47 15 75 4 29 13 59 20 68 17 20 51 21
51 1z m1542 -10 c11 -14 33 -32 49 -40 34 -18 38 -35 7 -35 -12 0 -38 17 -59
40 -52 54 -58 34 -9 -28 l39 -50 -52 -40 c-29 -22 -77 -53 -107 -70 -93 -50
-233 -122 -240 -122 -8 0 -54 80 -49 84 8 8 99 46 107 46 12 0 36 29 30 35 -2
3 -35 -10 -73 -29 -38 -19 -75 -32 -82 -29 -17 7 -25 2 87 58 52 27 106 56
120 66 14 9 37 15 52 14 15 -2 41 7 63 22 27 18 40 22 48 14 6 -6 17 -11 25
-11 10 0 9 7 -4 30 -16 25 -20 28 -34 16 -8 -8 -26 -17 -40 -21 -14 -4 1 11
35 34 33 23 62 41 64 41 2 0 12 -11 23 -25z m-2474 -48 c31 -24 75 -54 97 -67
22 -13 42 -26 45 -29 3 -4 14 -11 24 -17 30 -16 29 -27 -1 -66 -16 -20 -32
-43 -38 -52 -9 -15 -15 -14 -57 9 -65 35 -72 31 -12 -7 39 -26 45 -33 29 -36
-10 -2 -21 1 -23 7 -2 6 -9 11 -16 11 -6 0 -36 16 -65 35 -30 20 -60 34 -68
31 -17 -7 -43 3 -43 16 0 6 7 5 15 -2 9 -7 18 -10 21 -7 3 3 -14 18 -38 34
-23 15 -44 31 -46 36 -2 4 -10 7 -18 7 -8 0 -14 5 -14 10 0 18 35 11 73 -16
21 -14 41 -23 44 -21 2 3 -8 14 -24 24 -49 31 -57 42 -43 59 8 9 21 12 33 8
16 -5 19 -3 14 10 -7 16 28 66 46 66 4 0 34 -19 65 -43z m287 -61 c-30 -52
-45 -65 -45 -41 0 19 59 99 67 91 3 -2 -7 -25 -22 -50z m1662 19 c34 -17 50
-46 59 -108 4 -23 15 -59 26 -80 22 -44 93 -256 102 -307 5 -27 0 -21 -22 27
-16 35 -32 66 -35 70 -4 3 -7 13 -7 21 0 8 -6 28 -14 45 -42 92 -55 128 -71
185 -10 34 -22 65 -26 68 -5 3 -9 15 -9 27 0 20 -1 20 -13 3 -12 -17 -14 -17
-31 9 -14 21 -15 29 -5 41 14 17 10 17 46 -1z m1034 -52 c35 -36 55 -61 44
-55 -27 14 -132 122 -119 122 6 0 39 -30 75 -67z m-1062 -45 c12 -21 27 -36
31 -33 4 3 6 -4 3 -15 -3 -11 -7 -20 -9 -20 -8 0 -64 106 -63 120 0 13 1 13 7
0 4 -8 18 -32 31 -52z m611 52 c0 -5 -5 -10 -12 -10 -6 0 -8 -3 -5 -6 3 -4
-22 -25 -56 -48 -34 -22 -63 -44 -65 -48 -2 -5 -7 -8 -12 -8 -5 0 -41 -19 -82
-43 -96 -56 -151 -80 -174 -75 -12 3 16 21 80 51 95 46 235 132 285 176 26 23
41 27 41 11z m-3343 -163 c-46 -92 -105 -182 -114 -173 -3 3 6 20 20 38 14 18
42 65 63 103 20 39 43 81 51 95 7 14 13 32 14 40 0 11 2 11 6 2 3 -7 -15 -54
-40 -105z m3392 100 c-5 -5 -128 -84 -185 -120 -44 -27 -212 -117 -219 -117
-14 0 -2 20 16 25 11 4 66 36 122 71 56 36 111 70 122 77 10 7 25 17 31 23 7
6 27 16 46 23 18 7 40 16 48 21 14 7 29 5 19 -3z m-2243 -36 c5 -5 38 -20 74
-34 36 -15 55 -27 43 -27 -17 0 -21 -5 -19 -22 8 -55 29 -75 41 -38 8 24 20
25 60 4 16 -8 49 -18 72 -21 24 -3 46 -10 49 -14 3 -5 15 -9 27 -9 13 0 17 -3
11 -8 -7 -4 -14 -25 -15 -47 -4 -39 -3 -40 31 -42 30 -2 31 -1 10 6 -24 7 -29
30 -15 69 5 15 41 16 51 1 4 -8 0 -9 -15 -4 -18 5 -21 2 -21 -19 0 -29 16 -35
23 -8 3 12 5 10 7 -8 l2 -25 7 25 c5 20 14 26 41 28 30 2 32 1 17 -9 -13 -8
-17 -18 -13 -35 6 -22 3 -24 -26 -25 -33 -1 -33 -1 7 -11 22 -5 54 -11 70 -14
125 -21 155 -27 155 -35 0 -5 -44 -6 -97 -2 -89 6 -96 5 -90 -11 5 -14 3 -16
-12 -11 -11 3 -22 1 -26 -5 -3 -5 -12 -10 -18 -10 -8 0 -8 3 1 9 11 6 10 10
-5 16 -15 7 -12 10 17 15 l35 7 -43 2 c-28 1 -41 -3 -40 -11 2 -6 -5 -14 -14
-16 -11 -2 -18 2 -18 12 0 8 8 20 18 25 13 8 8 10 -25 11 -23 0 -53 4 -67 10
-23 8 -26 7 -26 -10 0 -22 -1 -23 -23 -14 -9 3 -13 13 -10 25 4 15 2 18 -11
13 -9 -3 -16 -10 -16 -15 0 -5 -10 -8 -22 -8 -17 1 -19 2 -5 6 30 8 19 21 -25
29 -24 4 -46 8 -50 8 -30 3 -5 66 26 66 18 0 16 3 -8 15 -16 9 -36 13 -43 11
-7 -3 -13 -1 -13 4 0 6 -8 10 -17 10 -13 0 -11 -5 10 -18 30 -19 34 -34 12
-52 -8 -7 -15 -9 -15 -4 0 4 -5 3 -12 -4 -16 -16 -31 -15 -25 1 2 6 -15 24
-39 39 -28 17 -44 23 -44 15 0 -7 5 -18 12 -25 7 -7 8 -12 3 -12 -14 0 -85 33
-85 40 0 11 52 115 72 143 19 27 46 35 64 18z m1589 -134 c14 -30 25 -57 25
-60 0 -3 -14 -9 -32 -12 -18 -4 -39 -11 -48 -16 -8 -4 -49 -17 -90 -29 -41
-11 -88 -25 -105 -29 -16 -5 -48 -12 -71 -16 l-41 -6 -6 38 c-4 21 -7 50 -7
66 0 21 -5 27 -21 27 -16 0 -19 -4 -14 -17 15 -35 17 -63 6 -63 -6 0 -11 13
-11 29 0 17 -5 33 -11 36 -17 11 -23 -4 -11 -28 7 -12 16 -37 21 -55 12 -41 1
-48 -101 -57 l-77 -7 9 28 c5 16 12 42 15 57 6 28 7 29 54 22 43 -6 49 -4 54
14 5 20 -4 26 -28 21 -53 -11 -106 -16 -110 -10 -5 8 58 21 178 39 31 4 57 4
57 -1 0 -4 7 -8 15 -8 8 0 15 -7 15 -15 0 -10 10 -15 29 -15 16 0 34 7 41 15
9 10 9 15 1 15 -6 0 -11 7 -11 15 0 8 7 15 15 15 8 0 15 -9 15 -20 0 -12 7
-20 16 -20 12 0 15 6 10 23 -5 20 0 24 37 35 23 6 63 14 90 18 26 3 50 10 53
15 9 15 13 11 39 -44z m-1720 -47 c3 -6 27 -19 53 -30 26 -12 59 -27 74 -35
14 -8 33 -15 42 -15 9 0 16 -4 16 -10 0 -11 -62 10 -131 45 -28 14 -57 25 -65
25 -8 0 -14 7 -14 15 0 17 16 20 25 5z m665 -53 c0 -39 -6 -48 -27 -40 -24 9
-33 46 -14 60 28 21 41 15 41 -20z m1050 -7 c0 -5 -5 -10 -11 -10 -5 0 -8 -4
-5 -9 4 -5 -3 -7 -14 -4 -25 7 -26 -12 -2 -26 22 -14 6 -14 -18 -1 -13 7 -26
7 -37 1 -22 -12 -211 -59 -235 -58 -39 1 -15 26 35 35 88 18 140 32 207 56 78
28 80 29 80 16z m-1392 -72 c23 -7 42 -15 42 -19 0 -4 -21 -1 -47 6 -84 24
-123 38 -123 46 0 4 19 1 43 -7 23 -7 61 -19 85 -26z m982 -42 c0 -22 -7 -26
-55 -37 -42 -9 -61 -9 -80 -1 -33 15 -35 15 -35 -3 0 -8 -4 -15 -10 -15 -14 0
-13 33 2 48 7 7 35 13 63 13 40 1 96 10 113 18 1 0 2 -10 2 -23z"/>
<path d="M4080 5129 c0 -5 -4 -7 -10 -4 -5 3 -10 1 -10 -4 0 -6 4 -11 9 -11
11 0 11 -73 0 -80 -4 -3 -4 -12 2 -20 8 -13 10 -13 19 0 13 20 13 130 0 130
-5 0 -10 -5 -10 -11z"/>
<path d="M3826 3963 c-34 -9 -93 -51 -115 -81 -26 -37 -27 -112 -3 -162 25
-51 95 -100 142 -100 105 0 186 84 184 192 -1 98 -109 176 -208 151z m-20 -81
c-13 -21 -27 -53 -31 -72 -7 -32 -8 -33 -21 -15 -8 10 -14 29 -14 41 0 26 51
84 74 84 14 0 12 -6 -8 -38z"/>
<path d="M1844 3119 c-4 -7 -3 -14 3 -16 6 -2 9 -13 6 -24 -4 -12 1 -25 13
-34 30 -22 37 -1 14 41 -28 49 -26 48 -36 33z"/>
<path d="M2547 2139 c-4 -16 -2 -19 10 -15 11 4 13 2 10 -9 -10 -23 11 -28 23
-4 10 17 8 23 -7 35 -25 18 -30 17 -36 -7z"/>
<path d="M2610 2091 c0 -12 29 -35 36 -28 6 6 54 -40 54 -53 0 -17 20 -11 27
7 4 9 1 19 -5 21 -7 2 -18 9 -25 15 -14 14 -72 47 -81 47 -3 0 -6 -4 -6 -9z"/>
<path d="M3381 6388 c0 -10 -5 -18 -11 -18 -13 0 -13 -37 -1 -45 5 -3 12 -1
16 5 3 5 17 10 30 10 13 0 27 5 31 11 9 15 -16 30 -38 23 -10 -3 -18 2 -21 13
-4 17 -5 17 -6 1z"/>
<path d="M2446 5963 c-3 -10 -9 -24 -12 -30 -8 -18 37 -17 61 1 11 8 16 19 12
30 -9 22 -53 21 -61 -1z"/>
<path d="M4845 5754 c52 -39 97 -64 106 -59 12 8 -9 29 -57 54 -46 25 -80 28
-49 5z"/>
<path d="M1675 5651 c5 -9 90 -51 101 -51 13 0 0 18 -23 31 -36 21 -87 33 -78
20z"/>
<path d="M1822 5516 c-14 -38 -6 -81 12 -63 27 28 56 71 56 82 0 6 -13 12 -29
12 -22 0 -30 -7 -39 -31z"/>
<path d="M1130 4471 c0 -13 0 -14 105 -36 44 -9 100 -15 125 -13 l45 3 -60 22
c-71 25 -215 42 -215 24z"/>
<path d="M1329 4226 c15 -17 61 -27 92 -19 20 6 17 9 -26 20 -67 17 -81 17
-66 -1z"/>
<path d="M6428 4178 c-3 -18 -9 -42 -13 -53 -6 -14 0 -10 19 10 26 30 31 65
10 72 -7 2 -14 -10 -16 -29z"/>
<path d="M1088 3689 c-19 -20 -24 -39 -10 -39 5 0 14 11 20 25 6 14 16 25 22
25 15 0 12 -19 -5 -36 -8 -9 -15 -20 -15 -26 0 -15 22 5 42 39 16 28 16 28
-10 29 -15 1 -35 -7 -44 -17z"/>
<path d="M1201 3673 c-7 -8 -10 -17 -6 -21 4 -4 10 -1 12 6 8 20 20 14 27 -14
7 -25 8 -25 20 -9 8 12 21 16 35 12 24 -6 29 10 6 19 -8 4 -23 0 -32 -7 -14
-12 -15 -11 -10 6 5 16 2 20 -16 21 -12 1 -28 -5 -36 -13z"/>
<path d="M6334 3065 c-8 -21 3 -48 19 -43 19 7 22 58 2 58 -8 0 -18 -7 -21
-15z"/>
<path d="M1459 3018 c0 -2 -2 -20 -4 -40 -3 -28 0 -38 10 -38 8 0 17 -11 21
-25 3 -14 10 -22 15 -19 5 3 1 16 -7 30 -15 23 -15 26 0 43 20 22 20 31 1 31
-8 0 -15 5 -15 10 0 8 -19 15 -21 8z"/>
<path d="M6440 2715 c0 -19 39 -35 83 -35 l32 0 -44 25 c-49 29 -71 32 -71 10z"/>
<path d="M5866 2667 c-9 -35 -7 -39 16 -35 29 4 34 29 9 45 -16 10 -20 9 -25
-10z"/>
<path d="M1697 2545 c-6 -17 5 -45 17 -45 13 0 46 35 46 50 0 12 -59 8 -63 -5z"/>
<path d="M1760 2392 c0 -4 13 -23 30 -42 28 -33 29 -34 30 -12 0 13 -10 32
-22 43 -25 20 -38 24 -38 11z"/>
<path d="M1850 2245 c0 -3 11 -18 25 -33 28 -29 41 -65 30 -82 -3 -5 -11 -8
-16 -5 -5 4 -9 -1 -9 -9 0 -18 -25 -22 -35 -6 -10 17 -27 11 -23 -7 5 -28 59
-33 82 -8 55 61 55 76 -4 124 -38 30 -50 37 -50 26z"/>
<path d="M5892 1993 c-20 -3 -32 -9 -29 -16 5 -15 54 -10 81 9 23 16 22 16
-52 7z"/>
<path d="M5975 1940 c-11 -5 -36 -9 -54 -9 -21 -1 -31 -5 -25 -10 11 -11 134
8 134 20 0 11 -28 10 -55 -1z"/>
<path d="M5493 1863 c-4 -10 -11 -21 -16 -24 -12 -8 -2 -39 12 -39 5 0 12 8
15 18 2 9 7 27 11 40 8 26 -12 31 -22 5z"/>
<path d="M2120 1830 c0 -11 7 -23 15 -26 8 -4 15 -15 15 -25 0 -10 7 -19 15
-19 17 0 20 16 6 25 -5 3 -12 19 -16 35 -7 34 -35 41 -35 10z"/>
<path d="M5637 1833 c-2 -4 -8 -37 -11 -73 -8 -75 5 -73 35 4 16 43 16 46 -1
61 -10 9 -20 13 -23 8z"/>
<path d="M5070 1815 c0 -3 14 -27 30 -54 33 -53 57 -70 67 -45 4 10 -10 31
-38 60 -39 39 -59 53 -59 39z"/>
<path d="M2050 1805 c0 -18 45 -85 57 -85 11 0 10 7 -4 31 -19 32 -53 67 -53
54z"/>
<path d="M4480 1467 c0 -25 25 -55 37 -43 10 9 -10 59 -24 64 -8 2 -13 -6 -13
-21z"/>
<path d="M3331 1366 c-26 -9 -30 -14 -20 -23 30 -23 57 -25 69 -3 11 20 6 41
-8 39 -4 0 -22 -6 -41 -13z"/>
<path d="M3586 1341 c-5 -7 -15 -10 -23 -7 -29 12 -63 -5 -63 -30 0 -27 2 -28
30 -14 11 6 29 15 40 20 17 9 20 7 20 -11 0 -18 2 -19 15 -9 18 15 19 21 2 45
-10 13 -16 15 -21 6z"/>
<path d="M4237 1224 c-11 -11 -8 -39 7 -68 11 -22 15 -24 20 -11 3 9 6 24 6
34 0 22 -23 54 -33 45z"/>
</g>
</svg>
