<?xml version="1.0" standalone="no"?>
<!DOCTYPE svg PUBLIC "-//W3C//DTD SVG 20010904//EN"
 "http://www.w3.org/TR/2001/REC-SVG-20010904/DTD/svg10.dtd">
<svg version="1.0" xmlns="http://www.w3.org/2000/svg"
 width="768.000000pt" height="768.000000pt" viewBox="0 0 768.000000 768.000000"
 preserveAspectRatio="xMidYMid meet">
<metadata>
Created by potrace 1.16, written by Peter Selinger 2001-2019
</metadata>
<g transform="translate(0.000000,768.000000) scale(0.100000,-0.100000)"
fill="#000000" stroke="none">
<path d="M3520 6924 c-25 -11 -52 -14 -95 -10 -84 8 -121 -4 -223 -68 -75 -47
-90 -61 -101 -93 -24 -78 -41 -187 -42 -271 -1 -48 -5 -112 -9 -142 -6 -42 -7
-25 -6 72 1 122 0 127 -24 153 -63 69 -199 97 -267 55 -18 -11 -33 -24 -33
-29 0 -17 -29 -20 -90 -10 -57 9 -64 8 -133 -24 -39 -18 -78 -41 -86 -51 -8
-10 -15 -39 -15 -64 -1 -43 -4 -48 -36 -65 -49 -25 -100 -82 -100 -111 0 -13
7 -43 15 -66 8 -23 15 -63 15 -89 0 -25 9 -75 20 -109 11 -35 20 -92 20 -126
0 -77 13 -95 87 -131 97 -45 142 -86 291 -263 131 -156 192 -203 337 -263 11
-5 54 -16 95 -25 64 -14 82 -22 120 -59 58 -55 123 -92 213 -120 56 -18 72
-28 71 -42 -1 -10 -8 -70 -18 -133 -11 -77 -16 -186 -17 -335 -1 -423 -32
-651 -145 -1055 -9 -30 -19 -66 -24 -80 -5 -14 -18 -59 -30 -100 -12 -41 -25
-86 -30 -100 -5 -14 -25 -79 -45 -145 -47 -150 -124 -361 -178 -485 -35 -80
-132 -260 -141 -260 -1 0 0 169 2 374 3 245 1 390 -6 418 -6 24 -13 68 -17 98
l-6 55 54 32 c30 18 69 48 85 68 45 50 90 214 66 238 -4 3 -25 -20 -49 -51
-37 -51 -85 -102 -85 -91 0 2 14 31 30 64 28 57 30 67 30 182 0 133 -5 141
-47 80 l-23 -32 0 33 c0 48 -32 163 -45 159 -5 -2 -27 -50 -49 -108 -31 -83
-39 -122 -43 -194 -3 -49 -1 -107 5 -127 17 -60 -1 -44 -47 43 -24 44 -48 78
-54 76 -7 -2 -13 -30 -15 -65 -2 -50 2 -71 24 -114 l26 -53 -45 44 c-47 45
-64 77 -93 174 -18 60 -30 70 -42 36 -10 -26 -9 -27 -97 121 -81 137 -74 128
-85 110 -20 -32 -23 -160 -6 -253 19 -100 39 -136 100 -178 42 -28 47 -43 10
-29 -33 13 -74 13 -74 0 0 -29 164 -120 263 -145 75 -19 90 -32 113 -98 17
-46 19 -94 22 -411 2 -197 0 -365 -3 -375 -5 -11 -18 5 -46 59 -82 159 -82
156 -64 225 30 121 15 262 -41 395 -46 109 -64 114 -64 18 -1 -73 -1 -73 -15
-39 -8 18 -15 43 -16 55 0 37 -44 159 -58 164 -11 4 -13 -8 -9 -57 2 -33 3
-61 1 -61 -1 0 -15 19 -29 43 -15 23 -68 85 -118 137 -51 52 -104 111 -118
130 -24 31 -28 33 -34 15 -4 -10 -2 -69 4 -129 15 -144 36 -204 109 -311 34
-49 143 -195 153 -205 12 -12 80 -116 80 -123 0 -4 -17 12 -37 35 -126 146
-316 318 -422 382 -18 12 -8 -22 33 -104 63 -127 116 -189 194 -229 42 -22 16
-22 -49 -1 -35 12 -106 26 -159 31 -52 6 -105 14 -117 19 -49 20 -30 -12 39
-67 40 -32 85 -71 101 -88 21 -21 52 -36 106 -51 73 -21 75 -22 48 -33 -16 -6
-42 -11 -58 -11 -16 0 -29 -4 -29 -10 0 -22 89 -35 237 -35 l152 0 35 -34 c38
-37 127 -208 146 -283 15 -56 9 -214 -14 -373 -9 -60 -21 -150 -26 -200 -6
-49 -15 -126 -20 -170 -18 -141 -30 -483 -24 -720 3 -126 7 -240 10 -252 4
-21 10 -23 70 -23 l66 0 -6 78 c-3 42 -9 176 -12 297 -7 251 3 323 58 407 61
96 94 116 313 184 66 20 127 41 135 45 8 4 36 16 62 26 52 20 72 43 35 42 -12
0 -46 -4 -75 -8 -29 -4 -55 -4 -58 1 -3 4 0 8 6 8 32 0 126 56 179 106 34 31
61 61 61 65 0 12 -57 11 -81 -1 -26 -15 -24 -5 11 38 32 41 100 169 100 189 0
16 -12 17 -28 1 -6 -6 -14 -9 -17 -7 -5 6 36 117 55 151 12 21 13 51 3 46 -5
-2 -39 -19 -76 -37 -37 -18 -92 -56 -122 -83 l-55 -50 0 41 c0 23 -4 41 -8 41
-5 0 -26 -37 -48 -83 l-39 -82 -3 48 c-2 26 -8 47 -13 47 -18 0 -70 -128 -88
-217 -18 -93 -23 -91 -36 12 -4 28 -9 58 -12 68 -8 29 -23 19 -23 -15 -1 -18
-7 -71 -14 -118 l-13 -85 -17 60 c-9 33 -22 71 -28 85 l-11 25 -8 -30 c-5 -16
-14 -82 -20 -145 -9 -88 -17 -126 -36 -160 -27 -51 -70 -107 -76 -100 -5 6 6
99 34 290 11 74 26 178 34 230 17 115 29 158 64 230 61 123 124 202 180 226
46 20 153 50 211 59 43 7 202 56 245 75 31 14 132 38 213 51 46 7 72 15 69 22
-6 18 -45 25 -157 27 -104 2 -105 2 -70 17 29 13 61 14 175 9 77 -3 172 -9
210 -12 89 -8 295 13 295 31 0 13 -30 23 -152 50 -86 20 -101 35 -34 35 23 0
56 4 72 9 16 5 65 19 109 31 97 27 119 35 209 81 41 21 72 43 74 53 3 16 -3
18 -50 16 -76 -3 -78 -2 -33 20 22 11 60 39 86 63 57 53 213 246 205 254 -5 5
-196 -53 -251 -76 -57 -25 -124 -51 -130 -51 -4 0 3 16 15 36 12 19 20 37 17
40 -13 14 -178 -73 -259 -136 -33 -26 -35 -14 -9 43 26 57 36 97 23 97 -5 0
-49 -38 -96 -85 -85 -85 -99 -89 -72 -24 7 19 16 46 20 62 11 47 -17 32 -99
-54 -42 -44 -79 -78 -83 -75 -3 4 -1 21 6 39 18 51 27 121 14 113 -19 -12 -99
-139 -142 -229 -37 -76 -60 -112 -60 -92 0 3 12 53 26 111 14 58 23 109 19
112 -4 4 -41 -29 -82 -73 -71 -77 -105 -133 -162 -270 -24 -58 -27 -35 -7 45
7 30 24 100 36 155 13 55 27 108 32 119 6 10 6 22 1 27 -8 8 -25 -9 -122 -121
-34 -40 -109 -186 -125 -246 -8 -26 -102 -131 -111 -122 -5 5 24 93 55 163 25
56 209 627 230 715 6 25 18 72 26 105 17 70 56 262 73 355 21 122 31 323 31
641 0 176 4 319 8 319 5 0 13 -10 19 -23 18 -38 64 -87 83 -87 40 0 110 88
110 139 0 20 6 22 95 37 22 4 48 11 58 16 14 7 29 1 65 -24 131 -94 211 -127
327 -135 130 -9 369 51 465 117 45 31 94 57 125 64 44 11 75 34 75 56 0 32 44
57 113 63 64 6 166 44 199 74 9 8 20 36 24 62 13 91 44 135 121 172 30 15 43
27 43 41 0 35 -47 86 -90 99 -50 15 -51 25 -3 34 39 7 88 29 97 43 3 5 -6 30
-20 56 -22 42 -24 52 -13 77 10 25 9 32 -5 48 -9 9 -16 30 -16 45 0 39 -15 62
-49 74 -20 7 -31 19 -36 40 -7 34 -13 37 -78 47 l-45 7 -4 50 c-4 38 -12 57
-35 80 -28 27 -37 30 -91 29 -139 -2 -185 -48 -320 -320 -99 -199 -144 -263
-226 -323 -68 -49 -67 -30 1 35 71 66 134 157 177 250 14 31 38 83 52 115 97
209 103 236 67 312 -12 25 -30 71 -41 102 -29 83 -108 224 -140 247 -15 10
-45 23 -66 27 -21 3 -45 14 -53 23 -7 9 -26 32 -42 51 -17 20 -50 43 -78 53
-26 11 -79 32 -118 49 -64 28 -80 30 -225 35 l-155 5 -40 39 c-66 63 -124 79
-278 79 -97 -1 -141 -5 -167 -16z m-205 -793 c151 -11 152 -13 235 -261 68
-203 63 -195 100 -173 22 13 30 25 31 48 0 29 1 29 11 8 9 -19 19 -23 58 -23
36 0 50 4 55 18 6 13 10 8 19 -23 15 -53 42 -56 107 -15 l49 32 21 -26 c18
-23 27 -26 83 -26 75 0 96 -17 106 -83 5 -41 6 -42 43 -40 20 1 37 -1 37 -6 0
-17 -30 -32 -57 -29 -24 3 -29 8 -34 43 -3 22 -11 50 -17 62 -13 23 -51 39
-74 30 -7 -2 -34 2 -61 10 -48 14 -70 11 -142 -18 -28 -11 -35 -9 -83 20 -52
33 -76 34 -112 7 -79 -60 -90 -48 -166 183 -67 206 -98 241 -189 221 -54 -12
-92 -5 -122 23 -22 20 -32 44 -14 32 5 -3 57 -9 116 -14z m2125 -402 c-62 -42
-156 -80 -213 -85 -166 -15 -319 -75 -424 -167 -30 -26 -78 -60 -106 -74 -49
-26 -62 -28 -237 -34 -102 -3 -201 -11 -220 -16 -78 -23 -147 -48 -203 -75
-62 -30 -79 -32 -50 -5 36 32 252 127 320 140 17 3 53 19 80 36 44 26 113 50
113 38 0 -3 -25 -20 -55 -37 -30 -17 -55 -35 -55 -40 0 -16 89 -22 157 -10 94
16 145 44 232 125 50 47 73 63 69 49 -5 -19 6 -16 93 28 88 44 111 51 216 64
71 10 148 27 193 44 81 30 117 38 90 19z m-1050 -203 c0 -9 -121 -66 -140 -66
-11 0 -20 6 -20 14 0 18 17 30 24 17 4 -6 29 0 59 14 50 23 77 30 77 21z"/>
<path d="M5230 3302 c-91 -46 -165 -104 -197 -155 -25 -40 -26 -60 -7 -124 5
-19 3 -21 -16 -16 -20 5 -21 3 -15 -17 12 -37 8 -115 -6 -141 -12 -23 -13 -21
-24 36 -16 88 -51 145 -87 145 -29 0 -98 -48 -108 -76 -16 -40 -11 -131 10
-233 11 -52 20 -115 20 -140 0 -47 -13 -81 -23 -64 -9 15 -68 222 -80 281 -6
28 -14 52 -19 52 -17 0 -59 -108 -70 -177 -7 -52 -7 -95 0 -150 9 -65 17 -261
12 -298 -2 -18 -37 81 -60 171 -32 127 -68 172 -99 123 -57 -92 -56 -89 -56
-204 0 -101 2 -114 28 -162 15 -29 43 -67 63 -85 32 -29 35 -37 30 -69 -3 -20
-13 -49 -21 -65 -8 -16 -15 -35 -15 -42 0 -7 -4 -20 -10 -30 -10 -19 -89 -256
-114 -342 -8 -30 -31 -113 -51 -185 -55 -202 -59 -215 -67 -215 -11 0 -9 -24
-18 255 -5 186 -12 267 -25 317 -18 72 -35 81 -35 20 0 -20 -4 -43 -8 -50 -9
-13 -22 22 -37 98 -8 35 -35 85 -35 62 0 -20 -18 -13 -26 10 -12 37 -108 188
-118 185 -11 -4 -9 -129 5 -216 5 -35 8 -66 5 -68 -2 -3 -16 16 -31 41 -15 25
-29 46 -32 46 -19 0 35 -199 74 -273 24 -48 5 -43 -41 9 -24 27 -48 46 -52 41
-4 -4 2 -35 14 -68 20 -56 20 -61 5 -56 -64 20 -64 20 -57 1 9 -25 97 -144
123 -168 12 -11 21 -24 21 -30 0 -6 37 -45 81 -85 85 -78 129 -149 129 -210 0
-25 -26 -131 -87 -351 -26 -94 -26 -95 36 -98 30 -2 59 2 64 7 6 6 21 50 35
98 13 49 30 112 38 140 8 29 21 77 29 105 7 29 28 100 45 158 18 58 38 129 46
158 36 135 45 167 98 346 51 172 119 358 151 412 25 43 51 58 119 69 64 11
167 66 217 116 49 50 99 143 99 184 0 53 -72 23 -170 -70 -105 -100 -152 -125
-100 -53 24 33 30 51 30 93 l0 52 73 36 c39 19 104 47 144 62 83 30 134 74
193 167 42 64 56 112 46 153 -7 28 -31 33 -55 11 -15 -13 -250 -173 -281 -191
-39 -22 40 49 89 81 31 20 72 57 91 82 19 26 50 63 68 83 21 24 30 43 26 53
-4 11 8 29 39 56 60 53 69 84 57 190 -5 47 -10 109 -10 138 0 50 -1 52 -27 52
-16 -1 -44 -9 -63 -18z"/>
<path d="M5345 2589 c-124 -64 -225 -134 -225 -156 0 -38 108 -31 163 11 18
14 48 44 67 67 19 24 46 53 59 65 21 19 22 44 3 44 -4 0 -34 -14 -67 -31z"/>
</g>
</svg>
